<svg width="3356" height="1431" xmlns="http://www.w3.org/2000/svg" xmlns:xlink="http://www.w3.org/1999/xlink" xml:space="preserve" overflow="hidden"><defs><clipPath id="clip0"><rect x="262" y="522" width="3356" height="1431"/></clipPath></defs><g clip-path="url(#clip0)" transform="translate(-262 -522)"><path d="M933.5 1119C933.5 1086.14 960.14 1059.5 993.002 1059.5L1610 1059.5C1642.86 1059.5 1669.5 1086.14 1669.5 1119L1669.5 1357C1669.5 1389.86 1642.86 1416.5 1610 1416.5L993.002 1416.5C960.14 1416.5 933.5 1389.86 933.5 1357Z" stroke="#000000" stroke-width="3.4375" stroke-linejoin="round" stroke-miterlimit="10" fill="none" fill-rule="evenodd"/><text font-family="Calibri,Calibri_MSFontService,sans-serif" font-weight="400" font-size="83" transform="matrix(1 0 0 1 996.784 1265)">OpenDSSInterface</text><path d="M263.5 1119C263.5 1086.14 290.139 1059.5 322.999 1059.5L682.001 1059.5C714.861 1059.5 741.5 1086.14 741.5 1119L741.5 1356.99C741.5 1389.85 714.861 1416.49 682.001 1416.49L322.999 1416.49C290.139 1416.49 263.5 1389.85 263.5 1356.99Z" stroke="#000000" stroke-width="3.4375" stroke-linejoin="round" stroke-miterlimit="10" fill="none" fill-rule="evenodd"/><text font-family="Calibri,Calibri_MSFontService,sans-serif" font-weight="400" font-size="83" transform="matrix(1 0 0 1 347.188 1215)">OpenDSS</text><text font-family="Calibri,Calibri_MSFontService,sans-serif" font-weight="400" font-size="83" transform="matrix(1 0 0 1 388.163 1314)">engine </text><path d="M3.40336-1.71874 189.097-1.7184 189.097 1.7191 3.40336 1.71876ZM30.0371 17.5263-0.00796571 2.47657e-08 30.0371-17.5262C30.8571-18.0045 31.9095-17.7276 32.3878-16.9076 32.8661-16.0877 32.5891-15.0353 31.7692-14.557L4.26915 1.48463 4.26916-1.48461 31.7691 14.5571C32.5891 15.0354 32.866 16.0878 32.3877 16.9078 31.9094 17.7277 30.857 18.0046 30.0371 17.5263ZM162.463-17.526 192.508 0.000361103 162.463 17.5266C161.643 18.0049 160.591 17.7279 160.113 16.908 159.634 16.0881 159.911 15.0356 160.731 14.5574L188.231-1.48427 188.231 1.48497 160.731-14.5567C159.911-15.035 159.634-16.0875 160.113-16.9074 160.591-17.7273 161.643-18.0043 162.463-17.526Z" transform="matrix(-1 0 0 1 934 1238.5)"/><path d="M3016.5 583.168C3016.5 550.214 3043.21 523.5 3076.17 523.5L3420.83 523.5C3453.79 523.5 3480.5 550.214 3480.5 583.168L3480.5 821.832C3480.5 854.786 3453.79 881.5 3420.83 881.5L3076.17 881.5C3043.21 881.5 3016.5 854.786 3016.5 821.832Z" stroke="#000000" stroke-width="3.4375" stroke-linejoin="round" stroke-miterlimit="10" fill="none" fill-rule="evenodd"/><text font-family="Calibri,Calibri_MSFontService,sans-serif" font-weight="400" font-size="83" transform="matrix(1 0 0 1 3073.13 729)">VR_Model</text><path d="M3016.5 1654C3016.5 1621.14 3043.14 1594.5 3076 1594.5L3421 1594.5C3453.86 1594.5 3480.5 1621.14 3480.5 1654L3480.5 1892C3480.5 1924.86 3453.86 1951.5 3421 1951.5L3076 1951.5C3043.14 1951.5 3016.5 1924.86 3016.5 1892Z" stroke="#000000" stroke-width="3.4375" stroke-linejoin="round" stroke-miterlimit="10" fill="none" fill-rule="evenodd"/><text font-family="Calibri,Calibri_MSFontService,sans-serif" font-weight="400" font-size="83" transform="matrix(1 0 0 1 3089.17 1800)">OpenDER</text><path d="M2881.5 1119C2881.5 1086.14 2908.14 1059.5 2941 1059.5L3557 1059.5C3589.86 1059.5 3616.5 1086.14 3616.5 1119L3616.5 1357C3616.5 1389.86 3589.86 1416.5 3557 1416.5L2941 1416.5C2908.14 1416.5 2881.5 1389.86 2881.5 1357Z" stroke="#000000" stroke-width="3.4375" stroke-linejoin="round" stroke-miterlimit="10" fill="none" fill-rule="evenodd"/><text font-family="Calibri,Calibri_MSFontService,sans-serif" font-weight="400" font-size="83" transform="matrix(1 0 0 1 2939.54 1265)">OpenDERInterface</text><path d="M3.40335-1.71874 214.877-1.71839 214.877 1.71911 3.40335 1.71876ZM30.0371 17.5263-0.00796606 9.50787e-08 30.0371-17.5262C30.8571-18.0045 31.9095-17.7276 32.3878-16.9076 32.8661-16.0877 32.5891-15.0353 31.7692-14.557L4.26915 1.48463 4.26916-1.48461 31.7691 14.5571C32.5891 15.0354 32.866 16.0878 32.3877 16.9077 31.9094 17.7277 30.857 18.0046 30.0371 17.5263ZM188.244-17.526 218.289 0.00036068 188.244 17.5266C187.424 18.0049 186.371 17.7279 185.893 16.908 185.415 16.0881 185.692 15.0356 186.512 14.5574L214.012-1.48427 214.012 1.48497 186.512-14.5567C185.692-15.035 185.415-16.0875 185.893-16.9074 186.371-17.7273 187.424-18.0043 188.244-17.526Z" transform="matrix(-1 0 0 1 2880.78 1238.5)"/><path d="M1.71876 3.40304 1.71946 174.635-1.71804 174.635-1.71874 3.40305ZM-17.5262 30.0372 2.68442e-08-0.00796571 17.5264 30.037C18.0047 30.857 17.7278 31.9094 16.9078 32.3877 16.0879 32.866 15.0355 32.589 14.5572 31.7691L-1.4846 4.26916 1.48464 4.26915-14.5569 31.7692C-15.0352 32.5891-16.0876 32.8661-16.9076 32.3878-17.7275 31.9095-18.0045 30.8571-17.5262 30.0372ZM17.5269 148.001 0.000721876 178.046-17.5257 148.001C-18.004 147.181-17.727 146.129-16.9071 145.65-16.0872 145.172-15.0348 145.449-14.5565 146.269L1.48532 173.769-1.48392 173.769 14.5576 146.269C15.0359 145.449 16.0884 145.172 16.9083 145.65 17.7282 146.128 18.0052 147.181 17.5269 148.001Z" transform="matrix(1 0 0 -1 3248.5 1059.54)"/><path d="M1.71876 3.40243 1.7191 173.923-1.7184 173.923-1.71874 3.40244ZM-17.5262 30.0371-1.35415e-07-0.00796571 17.5264 30.0371C18.0046 30.857 17.7277 31.9094 16.9078 32.3877 16.0878 32.866 15.0354 32.5891 14.5571 31.7691L-1.48461 4.26916 1.48463 4.26915-14.557 31.7692C-15.0353 32.5891-16.0877 32.8661-16.9076 32.3878-17.7276 31.9095-18.0045 30.8571-17.5262 30.0371ZM17.5266 147.289 0.000361028 177.334-17.526 147.289C-18.0043 146.469-17.7273 145.417-16.9074 144.938-16.0875 144.46-15.035 144.737-14.5568 145.557L1.48497 173.057-1.48427 173.057 14.5573 145.557C15.0356 144.737 16.0881 144.46 16.908 144.938 17.7279 145.416 18.0049 146.469 17.5266 147.289Z" transform="matrix(1 0 0 -1 3248.5 1593.83)"/><path d="M1887.5 1119C1887.5 1086.14 1914.14 1059.5 1947 1059.5L2603 1059.5C2635.86 1059.5 2662.5 1086.14 2662.5 1119L2662.5 1357C2662.5 1389.86 2635.86 1416.5 2603 1416.5L1947 1416.5C1914.14 1416.5 1887.5 1389.86 1887.5 1357Z" stroke="#000000" stroke-width="3.4375" stroke-linejoin="round" stroke-miterlimit="10" stroke-dasharray="13.75 10.3125" fill="none" fill-rule="evenodd"/><text font-family="Calibri,Calibri_MSFontService,sans-serif" font-style="italic" font-weight="400" font-size="83" transform="matrix(1 0 0 1 1948.39 1265)">SimulationInterface</text><path d="M2.84168e-06-1.71875 195.364-1.71843 195.364 1.71907-2.84168e-06 1.71875ZM190.781-13.7497 218.281 0.000360892 190.781 13.7503Z" transform="matrix(-1 0 0 1 1887.78 1238.5)"/></g></svg>