<?xml version="1.0" encoding="utf-8" standalone="no"?>
<!DOCTYPE svg PUBLIC "-//W3C//DTD SVG 1.1//EN"
  "http://www.w3.org/Graphics/SVG/1.1/DTD/svg11.dtd">
<svg xmlns:xlink="http://www.w3.org/1999/xlink" width="460.8pt" height="345.6pt" viewBox="0 0 460.8 345.6" xmlns="http://www.w3.org/2000/svg" version="1.1">
 <metadata>
  <rdf:RDF xmlns:dc="http://purl.org/dc/elements/1.1/" xmlns:cc="http://creativecommons.org/ns#" xmlns:rdf="http://www.w3.org/1999/02/22-rdf-syntax-ns#">
   <cc:Work>
    <dc:type rdf:resource="http://purl.org/dc/dcmitype/StillImage"/>
    <dc:date>2023-08-09T16:39:15.619938</dc:date>
    <dc:format>image/svg+xml</dc:format>
    <dc:creator>
     <cc:Agent>
      <dc:title>Matplotlib v3.7.1, https://matplotlib.org/</dc:title>
     </cc:Agent>
    </dc:creator>
   </cc:Work>
  </rdf:RDF>
 </metadata>
 <defs>
  <style type="text/css">*{stroke-linejoin: round; stroke-linecap: butt}</style>
 </defs>
 <g id="figure_1">
  <g id="patch_1">
   <path d="M 0 345.6 
L 460.8 345.6 
L 460.8 0 
L 0 0 
z
" style="fill: #ffffff"/>
  </g>
  <g id="axes_1">
   <g id="patch_2">
    <path d="M 57.6 307.584 
L 414.72 307.584 
L 414.72 41.472 
L 57.6 41.472 
z
" style="fill: #ffffff"/>
   </g>
   <g id="matplotlib.axis_1"/>
   <g id="matplotlib.axis_2"/>
   <g id="patch_3">
    <path d="M 57.6 307.584 
L 57.6 41.472 
" style="fill: none; stroke: #cccccc; stroke-width: 0.8; stroke-linejoin: miter; stroke-linecap: square"/>
   </g>
   <g id="patch_4">
    <path d="M 414.72 307.584 
L 414.72 41.472 
" style="fill: none; stroke: #cccccc; stroke-width: 0.8; stroke-linejoin: miter; stroke-linecap: square"/>
   </g>
   <g id="patch_5">
    <path d="M 57.6 307.584 
L 414.72 307.584 
" style="fill: none; stroke: #cccccc; stroke-width: 0.8; stroke-linejoin: miter; stroke-linecap: square"/>
   </g>
   <g id="patch_6">
    <path d="M 57.6 41.472 
L 414.72 41.472 
" style="fill: none; stroke: #cccccc; stroke-width: 0.8; stroke-linejoin: miter; stroke-linecap: square"/>
   </g>
   <g id="patch_7">
    <path d="M 237.469877 168.586732 
Q 241.912464 173.613005 246.355051 178.639278 
Q 239.668481 179.177583 232.98191 179.715889 
z
" style="fill: #a52a2a; stroke: #a52a2a; stroke-linecap: round"/>
   </g>
   <g id="patch_8">
    <path d="M 234.218944 175.009975 
Q 224.580684 136.193827 214.942425 97.37768 
L 211.060312 98.34163 
Q 212.525803 91.794815 213.991294 85.248 
Q 218.348972 90.34889 222.706651 95.449781 
L 218.824538 96.41373 
Q 228.462797 135.229878 238.101056 174.046025 
L 234.218944 175.009975 
z
" style="fill: #ffa500; stroke: #ffa500; stroke-linecap: round"/>
   </g>
   <g id="patch_9">
    <path d="M 234.788161 173.072645 
Q 267.921713 141.840462 301.055265 110.608278 
L 298.311587 107.697569 
Q 304.735197 105.765283 311.158807 103.832998 
Q 308.850714 110.131347 306.542622 116.429697 
L 303.798943 113.518987 
Q 270.665391 144.751171 237.531839 175.983355 
L 234.788161 173.072645 
z
" style="fill: #ffd700; stroke: #ffd700; stroke-linecap: round"/>
   </g>
  </g>
 </g>
</svg>
