<?xml version="1.0" encoding="utf-8" standalone="no"?>
<!DOCTYPE svg PUBLIC "-//W3C//DTD SVG 1.1//EN"
  "http://www.w3.org/Graphics/SVG/1.1/DTD/svg11.dtd">
<svg xmlns:xlink="http://www.w3.org/1999/xlink" width="460.8pt" height="345.6pt" viewBox="0 0 460.8 345.6" xmlns="http://www.w3.org/2000/svg" version="1.1">
 <metadata>
  <rdf:RDF xmlns:dc="http://purl.org/dc/elements/1.1/" xmlns:cc="http://creativecommons.org/ns#" xmlns:rdf="http://www.w3.org/1999/02/22-rdf-syntax-ns#">
   <cc:Work>
    <dc:type rdf:resource="http://purl.org/dc/dcmitype/StillImage"/>
    <dc:date>2023-03-23T16:13:41.826878</dc:date>
    <dc:format>image/svg+xml</dc:format>
    <dc:creator>
     <cc:Agent>
      <dc:title>Matplotlib v3.7.1, https://matplotlib.org/</dc:title>
     </cc:Agent>
    </dc:creator>
   </cc:Work>
  </rdf:RDF>
 </metadata>
 <defs>
  <style type="text/css">*{stroke-linejoin: round; stroke-linecap: butt}</style>
 </defs>
 <g id="figure_1">
  <g id="patch_1">
   <path d="M 0 345.6 
L 460.8 345.6 
L 460.8 0 
L 0 0 
z
" style="fill: #ffffff"/>
  </g>
  <g id="axes_1">
   <g id="patch_2">
    <path d="M 57.6 307.584 
L 414.72 307.584 
L 414.72 41.472 
L 57.6 41.472 
z
" style="fill: #ffffff"/>
   </g>
   <g id="matplotlib.axis_1"/>
   <g id="matplotlib.axis_2"/>
   <g id="patch_3">
    <path d="M 57.6 307.584 
L 57.6 41.472 
" style="fill: none; stroke: #cccccc; stroke-width: 0.8; stroke-linejoin: miter; stroke-linecap: square"/>
   </g>
   <g id="patch_4">
    <path d="M 414.72 307.584 
L 414.72 41.472 
" style="fill: none; stroke: #cccccc; stroke-width: 0.8; stroke-linejoin: miter; stroke-linecap: square"/>
   </g>
   <g id="patch_5">
    <path d="M 57.6 307.584 
L 414.72 307.584 
" style="fill: none; stroke: #cccccc; stroke-width: 0.8; stroke-linejoin: miter; stroke-linecap: square"/>
   </g>
   <g id="patch_6">
    <path d="M 57.6 41.472 
L 414.72 41.472 
" style="fill: none; stroke: #cccccc; stroke-width: 0.8; stroke-linejoin: miter; stroke-linecap: square"/>
   </g>
   <g id="patch_7">
    <path d="M 181.608813 244.606277 
Q 247.615025 216.330791 313.621236 188.055306 
L 312.046165 184.378466 
Q 318.743083 184.773338 325.44 185.16821 
Q 321.105688 190.288598 316.771377 195.408986 
L 315.196306 191.732146 
Q 249.190095 220.007631 183.183884 248.283117 
L 181.608813 244.606277 
z
" style="fill: #1f77b4; stroke: #ffffff; stroke-linecap: round"/>
   </g>
   <g id="patch_8">
    <path d="M 202.629842 92.205713 
Q 194.209788 163.486173 185.789733 234.766634 
L 189.762115 235.235874 
Q 186.079232 240.840285 182.396349 246.444697 
Q 180.12066 240.136425 177.844971 233.828153 
L 181.817352 234.297394 
Q 190.237406 163.016933 198.657461 91.736473 
L 202.629842 92.205713 
z
" style="fill: #1f77b4; stroke: #ffffff; stroke-linecap: round"/>
   </g>
   <g id="patch_9">
    <path d="M 324.243291 186.770673 
Q 266.653325 143.762854 209.06336 100.755035 
L 206.669942 103.959961 
Q 203.656797 97.965527 200.643651 91.971093 
Q 207.246924 93.158138 213.850196 94.345184 
L 211.456778 97.550109 
Q 269.046744 140.557929 326.636709 183.565748 
L 324.243291 186.770673 
z
" style="fill: #1f77b4; stroke: #ffffff; stroke-linecap: round"/>
   </g>
   <g id="patch_10">
    <path d="M 236.396681 172.542054 
Q 275.079323 177.152173 313.761964 181.762292 
L 314.235326 177.7904 
Q 319.837663 181.479305 325.44 185.16821 
Q 319.12762 187.437144 312.81524 189.706077 
L 313.288602 185.734185 
Q 274.605961 181.124065 235.923319 176.513946 
L 236.396681 172.542054 
z
" style="fill: #a52a2a; stroke: #a52a2a; stroke-linecap: round"/>
   </g>
   <g id="patch_11">
    <path d="M 237.761857 175.72552 
Q 214.472424 206.878521 191.182991 238.031523 
L 194.386705 240.426563 
Q 188.391527 243.43563 182.396349 246.444697 
Q 183.585956 239.84307 184.775563 233.241443 
L 187.979277 235.636483 
Q 211.26871 204.483481 234.558143 173.33048 
L 237.761857 175.72552 
z
" style="fill: #ffa500; stroke: #ffa500; stroke-linecap: round"/>
   </g>
   <g id="patch_12">
    <path d="M 234.322798 175.318372 
Q 218.935596 139.551187 203.548393 103.784002 
L 199.873989 105.364747 
Q 200.25882 98.66792 200.643651 91.971093 
Q 205.770426 96.296802 210.897202 100.622512 
L 207.222797 102.203257 
Q 222.61 137.970442 237.997202 173.737628 
L 234.322798 175.318372 
z
" style="fill: #ffd700; stroke: #ffd700; stroke-linecap: round"/>
   </g>
  </g>
 </g>
</svg>
