<?xml version="1.0" encoding="utf-8" standalone="no"?>
<!DOCTYPE svg PUBLIC "-//W3C//DTD SVG 1.1//EN"
  "http://www.w3.org/Graphics/SVG/1.1/DTD/svg11.dtd">
<svg xmlns:xlink="http://www.w3.org/1999/xlink" width="460.8pt" height="345.6pt" viewBox="0 0 460.8 345.6" xmlns="http://www.w3.org/2000/svg" version="1.1">
 <metadata>
  <rdf:RDF xmlns:dc="http://purl.org/dc/elements/1.1/" xmlns:cc="http://creativecommons.org/ns#" xmlns:rdf="http://www.w3.org/1999/02/22-rdf-syntax-ns#">
   <cc:Work>
    <dc:type rdf:resource="http://purl.org/dc/dcmitype/StillImage"/>
    <dc:date>2023-08-18T14:53:38.005985</dc:date>
    <dc:format>image/svg+xml</dc:format>
    <dc:creator>
     <cc:Agent>
      <dc:title>Matplotlib v3.7.2, https://matplotlib.org/</dc:title>
     </cc:Agent>
    </dc:creator>
   </cc:Work>
  </rdf:RDF>
 </metadata>
 <defs>
  <style type="text/css">*{stroke-linejoin: round; stroke-linecap: butt}</style>
 </defs>
 <g id="figure_1">
  <g id="patch_1">
   <path d="M 0 345.6 
L 460.8 345.6 
L 460.8 0 
L 0 0 
z
" style="fill: #ffffff"/>
  </g>
  <g id="axes_1">
   <g id="patch_2">
    <path d="M 57.6 307.584 
L 414.72 307.584 
L 414.72 41.472 
L 57.6 41.472 
z
" style="fill: #ffffff"/>
   </g>
   <g id="matplotlib.axis_1"/>
   <g id="matplotlib.axis_2"/>
   <g id="patch_3">
    <path d="M 57.6 307.584 
L 57.6 41.472 
" style="fill: none; stroke: #cccccc; stroke-width: 0.8; stroke-linejoin: miter; stroke-linecap: square"/>
   </g>
   <g id="patch_4">
    <path d="M 414.72 307.584 
L 414.72 41.472 
" style="fill: none; stroke: #cccccc; stroke-width: 0.8; stroke-linejoin: miter; stroke-linecap: square"/>
   </g>
   <g id="patch_5">
    <path d="M 57.6 307.584 
L 414.72 307.584 
" style="fill: none; stroke: #cccccc; stroke-width: 0.8; stroke-linejoin: miter; stroke-linecap: square"/>
   </g>
   <g id="patch_6">
    <path d="M 57.6 41.472 
L 414.72 41.472 
" style="fill: none; stroke: #cccccc; stroke-width: 0.8; stroke-linejoin: miter; stroke-linecap: square"/>
   </g>
   <g id="patch_7">
    <path d="M 269.780262 290.833807 
Q 292.369356 193.657424 314.95845 96.481041 
L 311.062329 95.57537 
Q 315.342637 90.411685 319.622946 85.248 
Q 321.186819 91.770192 322.750692 98.292384 
L 318.854571 97.386713 
Q 296.265477 194.563095 273.676383 291.739478 
L 269.780262 290.833807 
z
" style="fill: #1f77b4; stroke: #ffffff; stroke-linecap: round"/>
   </g>
   <g id="patch_8">
    <path d="M 118.493087 145.586985 
Q 191.406317 213.613079 264.319547 281.639173 
L 267.048257 278.714426 
Q 269.388289 285.000534 271.728322 291.286642 
Q 265.295224 289.387654 258.862126 287.488665 
L 261.590837 284.563919 
Q 188.677607 216.537825 115.764377 148.511731 
L 118.493087 145.586985 
z
" style="fill: #1f77b4; stroke: #ffffff; stroke-linecap: round"/>
   </g>
   <g id="patch_9">
    <path d="M 320.206762 87.160893 
Q 224.698989 116.309923 129.191216 145.458954 
L 130.358848 149.28474 
Q 123.74379 148.167049 117.128732 147.049358 
Q 121.992342 142.42837 126.855952 137.807383 
L 128.023584 141.633169 
Q 223.531357 112.484138 319.03913 83.335107 
L 320.206762 87.160893 
z
" style="fill: #1f77b4; stroke: #ffffff; stroke-linecap: round"/>
   </g>
   <g id="patch_10">
    <path d="M 234.698991 173.162184 
Q 272.333475 132.904718 309.967959 92.647252 
L 307.045942 89.91562 
Q 313.334444 87.58181 319.622946 85.248 
Q 317.717469 91.679259 315.811993 98.110517 
L 312.889976 95.378885 
Q 275.255492 135.63635 237.621009 175.893816 
L 234.698991 173.162184 
z
" style="fill: #a52a2a; stroke: #a52a2a; stroke-linecap: round"/>
   </g>
   <g id="patch_11">
    <path d="M 238.073197 173.945181 
Q 254.109226 226.585983 270.145255 279.226785 
L 273.971649 278.061146 
Q 272.849985 284.673894 271.728322 291.286642 
Q 267.110395 286.422352 262.492468 281.558062 
L 266.318862 280.392423 
Q 250.282833 227.751621 234.246803 175.110819 
L 238.073197 173.945181 
z
" style="fill: #ffa500; stroke: #ffa500; stroke-linecap: round"/>
   </g>
   <g id="patch_12">
    <path d="M 235.710127 176.476747 
Q 182.041076 164.087123 128.372025 151.697499 
L 127.472279 155.594993 
Q 122.300506 151.322175 117.128732 147.049358 
Q 123.650124 145.475935 130.171516 143.902511 
L 129.27177 147.800005 
Q 182.940821 160.189629 236.609873 172.579253 
L 235.710127 176.476747 
z
" style="fill: #ffd700; stroke: #ffd700; stroke-linecap: round"/>
   </g>
  </g>
 </g>
</svg>
