<?xml version="1.0" encoding="utf-8" standalone="no"?>
<!DOCTYPE svg PUBLIC "-//W3C//DTD SVG 1.1//EN"
  "http://www.w3.org/Graphics/SVG/1.1/DTD/svg11.dtd">
<svg xmlns:xlink="http://www.w3.org/1999/xlink" width="432pt" height="288pt" viewBox="0 0 432 288" xmlns="http://www.w3.org/2000/svg" version="1.1">
 <metadata>
  <rdf:RDF xmlns:dc="http://purl.org/dc/elements/1.1/" xmlns:cc="http://creativecommons.org/ns#" xmlns:rdf="http://www.w3.org/1999/02/22-rdf-syntax-ns#">
   <cc:Work>
    <dc:type rdf:resource="http://purl.org/dc/dcmitype/StillImage"/>
    <dc:date>2023-08-18T14:46:45.024457</dc:date>
    <dc:format>image/svg+xml</dc:format>
    <dc:creator>
     <cc:Agent>
      <dc:title>Matplotlib v3.7.2, https://matplotlib.org/</dc:title>
     </cc:Agent>
    </dc:creator>
   </cc:Work>
  </rdf:RDF>
 </metadata>
 <defs>
  <style type="text/css">*{stroke-linejoin: round; stroke-linecap: butt}</style>
 </defs>
 <g id="figure_1">
  <g id="patch_1">
   <path d="M 0 288 
L 432 288 
L 432 0 
L 0 0 
z
" style="fill: #ffffff"/>
  </g>
  <g id="axes_1">
   <g id="patch_2">
    <path d="M 31.5375 84.497072 
L 421.875 84.497072 
L 421.875 9.228941 
L 31.5375 9.228941 
z
" style="fill: #ffffff"/>
   </g>
   <g id="matplotlib.axis_1">
    <g id="xtick_1">
     <g id="line2d_1">
      <path d="M 49.280114 84.497072 
L 49.280114 9.228941 
" clip-path="url(#p114612f057)" style="fill: none; stroke-dasharray: 2.96,1.28; stroke-dashoffset: 0; stroke: #cccccc; stroke-width: 0.8"/>
     </g>
    </g>
    <g id="xtick_2">
     <g id="line2d_2">
      <path d="M 109.424567 84.497072 
L 109.424567 9.228941 
" clip-path="url(#p114612f057)" style="fill: none; stroke-dasharray: 2.96,1.28; stroke-dashoffset: 0; stroke: #cccccc; stroke-width: 0.8"/>
     </g>
    </g>
    <g id="xtick_3">
     <g id="line2d_3">
      <path d="M 169.56902 84.497072 
L 169.56902 9.228941 
" clip-path="url(#p114612f057)" style="fill: none; stroke-dasharray: 2.96,1.28; stroke-dashoffset: 0; stroke: #cccccc; stroke-width: 0.8"/>
     </g>
    </g>
    <g id="xtick_4">
     <g id="line2d_4">
      <path d="M 229.713473 84.497072 
L 229.713473 9.228941 
" clip-path="url(#p114612f057)" style="fill: none; stroke-dasharray: 2.96,1.28; stroke-dashoffset: 0; stroke: #cccccc; stroke-width: 0.8"/>
     </g>
    </g>
    <g id="xtick_5">
     <g id="line2d_5">
      <path d="M 289.857926 84.497072 
L 289.857926 9.228941 
" clip-path="url(#p114612f057)" style="fill: none; stroke-dasharray: 2.96,1.28; stroke-dashoffset: 0; stroke: #cccccc; stroke-width: 0.8"/>
     </g>
    </g>
    <g id="xtick_6">
     <g id="line2d_6">
      <path d="M 350.002379 84.497072 
L 350.002379 9.228941 
" clip-path="url(#p114612f057)" style="fill: none; stroke-dasharray: 2.96,1.28; stroke-dashoffset: 0; stroke: #cccccc; stroke-width: 0.8"/>
     </g>
    </g>
    <g id="xtick_7">
     <g id="line2d_7">
      <path d="M 410.146832 84.497072 
L 410.146832 9.228941 
" clip-path="url(#p114612f057)" style="fill: none; stroke-dasharray: 2.96,1.28; stroke-dashoffset: 0; stroke: #cccccc; stroke-width: 0.8"/>
     </g>
    </g>
   </g>
   <g id="matplotlib.axis_2">
    <g id="ytick_1">
     <g id="line2d_8">
      <path d="M 31.5375 49.094863 
L 421.875 49.094863 
" clip-path="url(#p114612f057)" style="fill: none; stroke-dasharray: 2.96,1.28; stroke-dashoffset: 0; stroke: #cccccc; stroke-width: 0.8"/>
     </g>
     <g id="text_1">
      <!-- 1 -->
      <g style="fill: #262626" transform="translate(18.175 52.894082) scale(0.1 -0.1)">
       <defs>
        <path id="DejaVuSans-31" d="M 794 531 
L 1825 531 
L 1825 4091 
L 703 3866 
L 703 4441 
L 1819 4666 
L 2450 4666 
L 2450 531 
L 3481 531 
L 3481 0 
L 794 0 
L 794 531 
z
" transform="scale(0.015625)"/>
       </defs>
       <use xlink:href="#DejaVuSans-31"/>
      </g>
     </g>
    </g>
    <g id="ytick_2">
     <g id="line2d_9">
      <path d="M 31.5375 12.772951 
L 421.875 12.772951 
" clip-path="url(#p114612f057)" style="fill: none; stroke-dasharray: 2.96,1.28; stroke-dashoffset: 0; stroke: #cccccc; stroke-width: 0.8"/>
     </g>
     <g id="text_2">
      <!-- 2 -->
      <g style="fill: #262626" transform="translate(18.175 16.57217) scale(0.1 -0.1)">
       <defs>
        <path id="DejaVuSans-32" d="M 1228 531 
L 3431 531 
L 3431 0 
L 469 0 
L 469 531 
Q 828 903 1448 1529 
Q 2069 2156 2228 2338 
Q 2531 2678 2651 2914 
Q 2772 3150 2772 3378 
Q 2772 3750 2511 3984 
Q 2250 4219 1831 4219 
Q 1534 4219 1204 4116 
Q 875 4013 500 3803 
L 500 4441 
Q 881 4594 1212 4672 
Q 1544 4750 1819 4750 
Q 2544 4750 2975 4387 
Q 3406 4025 3406 3419 
Q 3406 3131 3298 2873 
Q 3191 2616 2906 2266 
Q 2828 2175 2409 1742 
Q 1991 1309 1228 531 
z
" transform="scale(0.015625)"/>
       </defs>
       <use xlink:href="#DejaVuSans-32"/>
      </g>
     </g>
    </g>
   </g>
   <g id="line2d_10">
    <path d="M 49.280114 51.609405 
L 55.294559 51.609409 
L 61.309004 51.609411 
L 67.32345 51.609411 
L 73.337895 51.609412 
L 79.35234 51.609412 
L 85.366785 51.609412 
L 91.381231 51.609412 
L 97.395676 51.609412 
L 103.410121 51.609412 
L 109.424567 51.609412 
L 115.439012 51.609412 
L 121.453457 51.609412 
L 127.467903 51.609412 
L 133.482348 51.609412 
L 139.496793 51.609412 
L 145.511238 51.609412 
L 151.525684 51.609412 
L 157.540129 51.609412 
L 163.554574 51.609412 
L 169.56902 81.075793 
L 175.583465 80.569561 
L 181.59791 80.406129 
L 187.612356 80.354606 
L 193.626801 80.338305 
L 199.641246 80.333178 
L 205.655691 80.332041 
L 211.670137 80.331754 
L 217.684582 80.331431 
L 223.699027 80.3312 
L 229.713473 80.331055 
L 235.727918 80.330966 
L 241.742363 80.330912 
L 247.756809 80.330879 
L 253.771254 80.330859 
L 259.785699 80.330847 
L 265.800144 80.33084 
L 271.81459 80.330836 
L 277.829035 80.330834 
L 283.84348 80.330832 
L 289.857926 77.65565 
L 295.872371 78.463307 
L 301.886816 78.539591 
L 307.901262 78.546304 
L 313.915707 78.546891 
L 319.930152 78.546943 
L 325.944597 78.546947 
L 331.959043 78.546948 
L 337.973488 78.546948 
L 343.987933 78.546948 
L 350.002379 78.546948 
L 356.016824 78.546948 
L 362.031269 78.546948 
L 368.045715 78.546948 
L 374.06016 78.546948 
L 380.074605 78.546948 
L 386.08905 78.546948 
L 392.103496 78.546948 
L 398.117941 78.546948 
L 404.132386 78.546948 
" clip-path="url(#p114612f057)" style="fill: none; stroke: #a52a2a; stroke-width: 1.5; stroke-linecap: round"/>
   </g>
   <g id="line2d_11">
    <path d="M 49.280114 51.609405 
L 55.294559 51.609409 
L 61.309004 51.609411 
L 67.32345 51.609412 
L 73.337895 51.609412 
L 79.35234 51.609412 
L 85.366785 51.609412 
L 91.381231 51.609412 
L 97.395676 51.609412 
L 103.410121 51.609412 
L 109.424567 51.609412 
L 115.439012 51.609412 
L 121.453457 51.609412 
L 127.467903 51.609412 
L 133.482348 51.609412 
L 139.496793 51.609412 
L 145.511238 51.609412 
L 151.525684 51.609412 
L 157.540129 51.609412 
L 163.554574 51.609412 
L 169.56902 50.295179 
L 175.583465 51.426488 
L 181.59791 51.932543 
L 187.612356 52.130004 
L 193.626801 52.201113 
L 199.641246 52.225801 
L 205.655691 52.234133 
L 211.670137 52.236634 
L 217.684582 52.23753 
L 223.699027 52.237997 
L 229.713473 52.23827 
L 235.727918 52.238435 
L 241.742363 52.238535 
L 247.756809 52.238596 
L 253.771254 52.238633 
L 259.785699 52.238655 
L 265.800144 52.238668 
L 271.81459 52.238675 
L 277.829035 52.23868 
L 283.84348 52.238683 
L 289.857926 20.469293 
L 295.872371 27.228016 
L 301.886816 27.86639 
L 307.901262 27.922561 
L 313.915707 27.927481 
L 319.930152 27.92791 
L 325.944597 27.927948 
L 331.959043 27.927951 
L 337.973488 27.927951 
L 343.987933 27.927951 
L 350.002379 27.927951 
L 356.016824 27.927951 
L 362.031269 27.927951 
L 368.045715 27.927951 
L 374.06016 27.927951 
L 380.074605 27.927951 
L 386.08905 27.927951 
L 392.103496 27.927951 
L 398.117941 27.927951 
L 404.132386 27.927951 
" clip-path="url(#p114612f057)" style="fill: none; stroke: #ffa500; stroke-width: 1.5; stroke-linecap: round"/>
   </g>
   <g id="line2d_12">
    <path d="M 49.280114 51.609405 
L 55.294559 51.609409 
L 61.309004 51.609411 
L 67.32345 51.609412 
L 73.337895 51.609412 
L 79.35234 51.609412 
L 85.366785 51.609412 
L 91.381231 51.609412 
L 97.395676 51.609412 
L 103.410121 51.609412 
L 109.424567 51.609412 
L 115.439012 51.609412 
L 121.453457 51.609412 
L 127.467903 51.609412 
L 133.482348 51.609412 
L 139.496793 51.609412 
L 145.511238 51.609412 
L 151.525684 51.609412 
L 157.540129 51.609412 
L 163.554574 51.609412 
L 169.56902 53.990368 
L 175.583465 55.041288 
L 181.59791 55.514364 
L 187.612356 55.699612 
L 193.626801 55.766446 
L 199.641246 55.789678 
L 205.655691 55.797547 
L 211.670137 55.799912 
L 217.684582 55.800748 
L 223.699027 55.801181 
L 229.713473 55.801434 
L 235.727918 55.801586 
L 241.742363 55.801679 
L 247.756809 55.801735 
L 253.771254 55.801769 
L 259.785699 55.80179 
L 265.800144 55.801802 
L 271.81459 55.801808 
L 277.829035 55.801813 
L 283.84348 55.801816 
L 289.857926 12.65022 
L 295.872371 20.22263 
L 301.886816 20.937858 
L 307.901262 21.000791 
L 313.915707 21.006304 
L 319.930152 21.006785 
L 325.944597 21.006827 
L 331.959043 21.006831 
L 337.973488 21.006831 
L 343.987933 21.006831 
L 350.002379 21.006831 
L 356.016824 21.006831 
L 362.031269 21.006831 
L 368.045715 21.006831 
L 374.06016 21.006831 
L 380.074605 21.006831 
L 386.08905 21.006831 
L 392.103496 21.006831 
L 398.117941 21.006831 
L 404.132386 21.006831 
" clip-path="url(#p114612f057)" style="fill: none; stroke: #ffd700; stroke-width: 1.5; stroke-linecap: round"/>
   </g>
   <g id="patch_3">
    <path d="M 31.5375 84.497072 
L 31.5375 9.228941 
" style="fill: none; stroke: #cccccc; stroke-width: 0.8; stroke-linejoin: miter; stroke-linecap: square"/>
   </g>
   <g id="patch_4">
    <path d="M 421.875 84.497072 
L 421.875 9.228941 
" style="fill: none; stroke: #cccccc; stroke-width: 0.8; stroke-linejoin: miter; stroke-linecap: square"/>
   </g>
   <g id="patch_5">
    <path d="M 31.5375 84.497072 
L 421.875 84.497072 
" style="fill: none; stroke: #cccccc; stroke-width: 0.8; stroke-linejoin: miter; stroke-linecap: square"/>
   </g>
   <g id="patch_6">
    <path d="M 31.5375 9.228941 
L 421.875 9.228941 
" style="fill: none; stroke: #cccccc; stroke-width: 0.8; stroke-linejoin: miter; stroke-linecap: square"/>
   </g>
   <g id="text_3">
    <!-- Transformer High Side Voltage (pu) -->
    <g style="fill: #262626" transform="translate(121.51125 3.228941) scale(0.12 -0.12)">
     <defs>
      <path id="DejaVuSans-54" d="M -19 4666 
L 3928 4666 
L 3928 4134 
L 2272 4134 
L 2272 0 
L 1638 0 
L 1638 4134 
L -19 4134 
L -19 4666 
z
" transform="scale(0.015625)"/>
      <path id="DejaVuSans-72" d="M 2631 2963 
Q 2534 3019 2420 3045 
Q 2306 3072 2169 3072 
Q 1681 3072 1420 2755 
Q 1159 2438 1159 1844 
L 1159 0 
L 581 0 
L 581 3500 
L 1159 3500 
L 1159 2956 
Q 1341 3275 1631 3429 
Q 1922 3584 2338 3584 
Q 2397 3584 2469 3576 
Q 2541 3569 2628 3553 
L 2631 2963 
z
" transform="scale(0.015625)"/>
      <path id="DejaVuSans-61" d="M 2194 1759 
Q 1497 1759 1228 1600 
Q 959 1441 959 1056 
Q 959 750 1161 570 
Q 1363 391 1709 391 
Q 2188 391 2477 730 
Q 2766 1069 2766 1631 
L 2766 1759 
L 2194 1759 
z
M 3341 1997 
L 3341 0 
L 2766 0 
L 2766 531 
Q 2569 213 2275 61 
Q 1981 -91 1556 -91 
Q 1019 -91 701 211 
Q 384 513 384 1019 
Q 384 1609 779 1909 
Q 1175 2209 1959 2209 
L 2766 2209 
L 2766 2266 
Q 2766 2663 2505 2880 
Q 2244 3097 1772 3097 
Q 1472 3097 1187 3025 
Q 903 2953 641 2809 
L 641 3341 
Q 956 3463 1253 3523 
Q 1550 3584 1831 3584 
Q 2591 3584 2966 3190 
Q 3341 2797 3341 1997 
z
" transform="scale(0.015625)"/>
      <path id="DejaVuSans-6e" d="M 3513 2113 
L 3513 0 
L 2938 0 
L 2938 2094 
Q 2938 2591 2744 2837 
Q 2550 3084 2163 3084 
Q 1697 3084 1428 2787 
Q 1159 2491 1159 1978 
L 1159 0 
L 581 0 
L 581 3500 
L 1159 3500 
L 1159 2956 
Q 1366 3272 1645 3428 
Q 1925 3584 2291 3584 
Q 2894 3584 3203 3211 
Q 3513 2838 3513 2113 
z
" transform="scale(0.015625)"/>
      <path id="DejaVuSans-73" d="M 2834 3397 
L 2834 2853 
Q 2591 2978 2328 3040 
Q 2066 3103 1784 3103 
Q 1356 3103 1142 2972 
Q 928 2841 928 2578 
Q 928 2378 1081 2264 
Q 1234 2150 1697 2047 
L 1894 2003 
Q 2506 1872 2764 1633 
Q 3022 1394 3022 966 
Q 3022 478 2636 193 
Q 2250 -91 1575 -91 
Q 1294 -91 989 -36 
Q 684 19 347 128 
L 347 722 
Q 666 556 975 473 
Q 1284 391 1588 391 
Q 1994 391 2212 530 
Q 2431 669 2431 922 
Q 2431 1156 2273 1281 
Q 2116 1406 1581 1522 
L 1381 1569 
Q 847 1681 609 1914 
Q 372 2147 372 2553 
Q 372 3047 722 3315 
Q 1072 3584 1716 3584 
Q 2034 3584 2315 3537 
Q 2597 3491 2834 3397 
z
" transform="scale(0.015625)"/>
      <path id="DejaVuSans-66" d="M 2375 4863 
L 2375 4384 
L 1825 4384 
Q 1516 4384 1395 4259 
Q 1275 4134 1275 3809 
L 1275 3500 
L 2222 3500 
L 2222 3053 
L 1275 3053 
L 1275 0 
L 697 0 
L 697 3053 
L 147 3053 
L 147 3500 
L 697 3500 
L 697 3744 
Q 697 4328 969 4595 
Q 1241 4863 1831 4863 
L 2375 4863 
z
" transform="scale(0.015625)"/>
      <path id="DejaVuSans-6f" d="M 1959 3097 
Q 1497 3097 1228 2736 
Q 959 2375 959 1747 
Q 959 1119 1226 758 
Q 1494 397 1959 397 
Q 2419 397 2687 759 
Q 2956 1122 2956 1747 
Q 2956 2369 2687 2733 
Q 2419 3097 1959 3097 
z
M 1959 3584 
Q 2709 3584 3137 3096 
Q 3566 2609 3566 1747 
Q 3566 888 3137 398 
Q 2709 -91 1959 -91 
Q 1206 -91 779 398 
Q 353 888 353 1747 
Q 353 2609 779 3096 
Q 1206 3584 1959 3584 
z
" transform="scale(0.015625)"/>
      <path id="DejaVuSans-6d" d="M 3328 2828 
Q 3544 3216 3844 3400 
Q 4144 3584 4550 3584 
Q 5097 3584 5394 3201 
Q 5691 2819 5691 2113 
L 5691 0 
L 5113 0 
L 5113 2094 
Q 5113 2597 4934 2840 
Q 4756 3084 4391 3084 
Q 3944 3084 3684 2787 
Q 3425 2491 3425 1978 
L 3425 0 
L 2847 0 
L 2847 2094 
Q 2847 2600 2669 2842 
Q 2491 3084 2119 3084 
Q 1678 3084 1418 2786 
Q 1159 2488 1159 1978 
L 1159 0 
L 581 0 
L 581 3500 
L 1159 3500 
L 1159 2956 
Q 1356 3278 1631 3431 
Q 1906 3584 2284 3584 
Q 2666 3584 2933 3390 
Q 3200 3197 3328 2828 
z
" transform="scale(0.015625)"/>
      <path id="DejaVuSans-65" d="M 3597 1894 
L 3597 1613 
L 953 1613 
Q 991 1019 1311 708 
Q 1631 397 2203 397 
Q 2534 397 2845 478 
Q 3156 559 3463 722 
L 3463 178 
Q 3153 47 2828 -22 
Q 2503 -91 2169 -91 
Q 1331 -91 842 396 
Q 353 884 353 1716 
Q 353 2575 817 3079 
Q 1281 3584 2069 3584 
Q 2775 3584 3186 3129 
Q 3597 2675 3597 1894 
z
M 3022 2063 
Q 3016 2534 2758 2815 
Q 2500 3097 2075 3097 
Q 1594 3097 1305 2825 
Q 1016 2553 972 2059 
L 3022 2063 
z
" transform="scale(0.015625)"/>
      <path id="DejaVuSans-20" transform="scale(0.015625)"/>
      <path id="DejaVuSans-48" d="M 628 4666 
L 1259 4666 
L 1259 2753 
L 3553 2753 
L 3553 4666 
L 4184 4666 
L 4184 0 
L 3553 0 
L 3553 2222 
L 1259 2222 
L 1259 0 
L 628 0 
L 628 4666 
z
" transform="scale(0.015625)"/>
      <path id="DejaVuSans-69" d="M 603 3500 
L 1178 3500 
L 1178 0 
L 603 0 
L 603 3500 
z
M 603 4863 
L 1178 4863 
L 1178 4134 
L 603 4134 
L 603 4863 
z
" transform="scale(0.015625)"/>
      <path id="DejaVuSans-67" d="M 2906 1791 
Q 2906 2416 2648 2759 
Q 2391 3103 1925 3103 
Q 1463 3103 1205 2759 
Q 947 2416 947 1791 
Q 947 1169 1205 825 
Q 1463 481 1925 481 
Q 2391 481 2648 825 
Q 2906 1169 2906 1791 
z
M 3481 434 
Q 3481 -459 3084 -895 
Q 2688 -1331 1869 -1331 
Q 1566 -1331 1297 -1286 
Q 1028 -1241 775 -1147 
L 775 -588 
Q 1028 -725 1275 -790 
Q 1522 -856 1778 -856 
Q 2344 -856 2625 -561 
Q 2906 -266 2906 331 
L 2906 616 
Q 2728 306 2450 153 
Q 2172 0 1784 0 
Q 1141 0 747 490 
Q 353 981 353 1791 
Q 353 2603 747 3093 
Q 1141 3584 1784 3584 
Q 2172 3584 2450 3431 
Q 2728 3278 2906 2969 
L 2906 3500 
L 3481 3500 
L 3481 434 
z
" transform="scale(0.015625)"/>
      <path id="DejaVuSans-68" d="M 3513 2113 
L 3513 0 
L 2938 0 
L 2938 2094 
Q 2938 2591 2744 2837 
Q 2550 3084 2163 3084 
Q 1697 3084 1428 2787 
Q 1159 2491 1159 1978 
L 1159 0 
L 581 0 
L 581 4863 
L 1159 4863 
L 1159 2956 
Q 1366 3272 1645 3428 
Q 1925 3584 2291 3584 
Q 2894 3584 3203 3211 
Q 3513 2838 3513 2113 
z
" transform="scale(0.015625)"/>
      <path id="DejaVuSans-53" d="M 3425 4513 
L 3425 3897 
Q 3066 4069 2747 4153 
Q 2428 4238 2131 4238 
Q 1616 4238 1336 4038 
Q 1056 3838 1056 3469 
Q 1056 3159 1242 3001 
Q 1428 2844 1947 2747 
L 2328 2669 
Q 3034 2534 3370 2195 
Q 3706 1856 3706 1288 
Q 3706 609 3251 259 
Q 2797 -91 1919 -91 
Q 1588 -91 1214 -16 
Q 841 59 441 206 
L 441 856 
Q 825 641 1194 531 
Q 1563 422 1919 422 
Q 2459 422 2753 634 
Q 3047 847 3047 1241 
Q 3047 1584 2836 1778 
Q 2625 1972 2144 2069 
L 1759 2144 
Q 1053 2284 737 2584 
Q 422 2884 422 3419 
Q 422 4038 858 4394 
Q 1294 4750 2059 4750 
Q 2388 4750 2728 4690 
Q 3069 4631 3425 4513 
z
" transform="scale(0.015625)"/>
      <path id="DejaVuSans-64" d="M 2906 2969 
L 2906 4863 
L 3481 4863 
L 3481 0 
L 2906 0 
L 2906 525 
Q 2725 213 2448 61 
Q 2172 -91 1784 -91 
Q 1150 -91 751 415 
Q 353 922 353 1747 
Q 353 2572 751 3078 
Q 1150 3584 1784 3584 
Q 2172 3584 2448 3432 
Q 2725 3281 2906 2969 
z
M 947 1747 
Q 947 1113 1208 752 
Q 1469 391 1925 391 
Q 2381 391 2643 752 
Q 2906 1113 2906 1747 
Q 2906 2381 2643 2742 
Q 2381 3103 1925 3103 
Q 1469 3103 1208 2742 
Q 947 2381 947 1747 
z
" transform="scale(0.015625)"/>
      <path id="DejaVuSans-56" d="M 1831 0 
L 50 4666 
L 709 4666 
L 2188 738 
L 3669 4666 
L 4325 4666 
L 2547 0 
L 1831 0 
z
" transform="scale(0.015625)"/>
      <path id="DejaVuSans-6c" d="M 603 4863 
L 1178 4863 
L 1178 0 
L 603 0 
L 603 4863 
z
" transform="scale(0.015625)"/>
      <path id="DejaVuSans-74" d="M 1172 4494 
L 1172 3500 
L 2356 3500 
L 2356 3053 
L 1172 3053 
L 1172 1153 
Q 1172 725 1289 603 
Q 1406 481 1766 481 
L 2356 481 
L 2356 0 
L 1766 0 
Q 1100 0 847 248 
Q 594 497 594 1153 
L 594 3053 
L 172 3053 
L 172 3500 
L 594 3500 
L 594 4494 
L 1172 4494 
z
" transform="scale(0.015625)"/>
      <path id="DejaVuSans-28" d="M 1984 4856 
Q 1566 4138 1362 3434 
Q 1159 2731 1159 2009 
Q 1159 1288 1364 580 
Q 1569 -128 1984 -844 
L 1484 -844 
Q 1016 -109 783 600 
Q 550 1309 550 2009 
Q 550 2706 781 3412 
Q 1013 4119 1484 4856 
L 1984 4856 
z
" transform="scale(0.015625)"/>
      <path id="DejaVuSans-70" d="M 1159 525 
L 1159 -1331 
L 581 -1331 
L 581 3500 
L 1159 3500 
L 1159 2969 
Q 1341 3281 1617 3432 
Q 1894 3584 2278 3584 
Q 2916 3584 3314 3078 
Q 3713 2572 3713 1747 
Q 3713 922 3314 415 
Q 2916 -91 2278 -91 
Q 1894 -91 1617 61 
Q 1341 213 1159 525 
z
M 3116 1747 
Q 3116 2381 2855 2742 
Q 2594 3103 2138 3103 
Q 1681 3103 1420 2742 
Q 1159 2381 1159 1747 
Q 1159 1113 1420 752 
Q 1681 391 2138 391 
Q 2594 391 2855 752 
Q 3116 1113 3116 1747 
z
" transform="scale(0.015625)"/>
      <path id="DejaVuSans-75" d="M 544 1381 
L 544 3500 
L 1119 3500 
L 1119 1403 
Q 1119 906 1312 657 
Q 1506 409 1894 409 
Q 2359 409 2629 706 
Q 2900 1003 2900 1516 
L 2900 3500 
L 3475 3500 
L 3475 0 
L 2900 0 
L 2900 538 
Q 2691 219 2414 64 
Q 2138 -91 1772 -91 
Q 1169 -91 856 284 
Q 544 659 544 1381 
z
M 1991 3584 
L 1991 3584 
z
" transform="scale(0.015625)"/>
      <path id="DejaVuSans-29" d="M 513 4856 
L 1013 4856 
Q 1481 4119 1714 3412 
Q 1947 2706 1947 2009 
Q 1947 1309 1714 600 
Q 1481 -109 1013 -844 
L 513 -844 
Q 928 -128 1133 580 
Q 1338 1288 1338 2009 
Q 1338 2731 1133 3434 
Q 928 4138 513 4856 
z
" transform="scale(0.015625)"/>
     </defs>
     <use xlink:href="#DejaVuSans-54"/>
     <use xlink:href="#DejaVuSans-72" x="46.333984"/>
     <use xlink:href="#DejaVuSans-61" x="87.447266"/>
     <use xlink:href="#DejaVuSans-6e" x="148.726562"/>
     <use xlink:href="#DejaVuSans-73" x="212.105469"/>
     <use xlink:href="#DejaVuSans-66" x="264.205078"/>
     <use xlink:href="#DejaVuSans-6f" x="299.410156"/>
     <use xlink:href="#DejaVuSans-72" x="360.591797"/>
     <use xlink:href="#DejaVuSans-6d" x="399.955078"/>
     <use xlink:href="#DejaVuSans-65" x="497.367188"/>
     <use xlink:href="#DejaVuSans-72" x="558.890625"/>
     <use xlink:href="#DejaVuSans-20" x="600.003906"/>
     <use xlink:href="#DejaVuSans-48" x="631.791016"/>
     <use xlink:href="#DejaVuSans-69" x="706.986328"/>
     <use xlink:href="#DejaVuSans-67" x="734.769531"/>
     <use xlink:href="#DejaVuSans-68" x="798.246094"/>
     <use xlink:href="#DejaVuSans-20" x="861.625"/>
     <use xlink:href="#DejaVuSans-53" x="893.412109"/>
     <use xlink:href="#DejaVuSans-69" x="956.888672"/>
     <use xlink:href="#DejaVuSans-64" x="984.671875"/>
     <use xlink:href="#DejaVuSans-65" x="1048.148438"/>
     <use xlink:href="#DejaVuSans-20" x="1109.671875"/>
     <use xlink:href="#DejaVuSans-56" x="1141.458984"/>
     <use xlink:href="#DejaVuSans-6f" x="1202.117188"/>
     <use xlink:href="#DejaVuSans-6c" x="1263.298828"/>
     <use xlink:href="#DejaVuSans-74" x="1291.082031"/>
     <use xlink:href="#DejaVuSans-61" x="1330.291016"/>
     <use xlink:href="#DejaVuSans-67" x="1391.570312"/>
     <use xlink:href="#DejaVuSans-65" x="1455.046875"/>
     <use xlink:href="#DejaVuSans-20" x="1516.570312"/>
     <use xlink:href="#DejaVuSans-28" x="1548.357422"/>
     <use xlink:href="#DejaVuSans-70" x="1587.371094"/>
     <use xlink:href="#DejaVuSans-75" x="1650.847656"/>
     <use xlink:href="#DejaVuSans-29" x="1714.226562"/>
    </g>
   </g>
   <g id="legend_1">
    <g id="patch_7">
     <path d="M 38.5375 62.097691 
L 87.804688 62.097691 
Q 89.804688 62.097691 89.804688 60.097691 
L 89.804688 16.228941 
Q 89.804688 14.228941 87.804688 14.228941 
L 38.5375 14.228941 
Q 36.5375 14.228941 36.5375 16.228941 
L 36.5375 60.097691 
Q 36.5375 62.097691 38.5375 62.097691 
z
" style="fill: #ffffff; opacity: 0.8; stroke: #cccccc; stroke-linejoin: miter"/>
    </g>
    <g id="line2d_13">
     <path d="M 40.5375 22.327379 
L 50.5375 22.327379 
L 60.5375 22.327379 
" style="fill: none; stroke: #a52a2a; stroke-width: 1.5; stroke-linecap: round"/>
    </g>
    <g id="text_4">
     <!-- v_a -->
     <g style="fill: #262626" transform="translate(68.5375 25.827379) scale(0.1 -0.1)">
      <defs>
       <path id="DejaVuSans-76" d="M 191 3500 
L 800 3500 
L 1894 563 
L 2988 3500 
L 3597 3500 
L 2284 0 
L 1503 0 
L 191 3500 
z
" transform="scale(0.015625)"/>
       <path id="DejaVuSans-5f" d="M 3263 -1063 
L 3263 -1509 
L -63 -1509 
L -63 -1063 
L 3263 -1063 
z
" transform="scale(0.015625)"/>
      </defs>
      <use xlink:href="#DejaVuSans-76"/>
      <use xlink:href="#DejaVuSans-5f" x="59.179688"/>
      <use xlink:href="#DejaVuSans-61" x="109.179688"/>
     </g>
    </g>
    <g id="line2d_14">
     <path d="M 40.5375 37.283629 
L 50.5375 37.283629 
L 60.5375 37.283629 
" style="fill: none; stroke: #ffa500; stroke-width: 1.5; stroke-linecap: round"/>
    </g>
    <g id="text_5">
     <!-- v_b -->
     <g style="fill: #262626" transform="translate(68.5375 40.783629) scale(0.1 -0.1)">
      <defs>
       <path id="DejaVuSans-62" d="M 3116 1747 
Q 3116 2381 2855 2742 
Q 2594 3103 2138 3103 
Q 1681 3103 1420 2742 
Q 1159 2381 1159 1747 
Q 1159 1113 1420 752 
Q 1681 391 2138 391 
Q 2594 391 2855 752 
Q 3116 1113 3116 1747 
z
M 1159 2969 
Q 1341 3281 1617 3432 
Q 1894 3584 2278 3584 
Q 2916 3584 3314 3078 
Q 3713 2572 3713 1747 
Q 3713 922 3314 415 
Q 2916 -91 2278 -91 
Q 1894 -91 1617 61 
Q 1341 213 1159 525 
L 1159 0 
L 581 0 
L 581 4863 
L 1159 4863 
L 1159 2969 
z
" transform="scale(0.015625)"/>
      </defs>
      <use xlink:href="#DejaVuSans-76"/>
      <use xlink:href="#DejaVuSans-5f" x="59.179688"/>
      <use xlink:href="#DejaVuSans-62" x="109.179688"/>
     </g>
    </g>
    <g id="line2d_15">
     <path d="M 40.5375 52.239879 
L 50.5375 52.239879 
L 60.5375 52.239879 
" style="fill: none; stroke: #ffd700; stroke-width: 1.5; stroke-linecap: round"/>
    </g>
    <g id="text_6">
     <!-- v_c -->
     <g style="fill: #262626" transform="translate(68.5375 55.739879) scale(0.1 -0.1)">
      <defs>
       <path id="DejaVuSans-63" d="M 3122 3366 
L 3122 2828 
Q 2878 2963 2633 3030 
Q 2388 3097 2138 3097 
Q 1578 3097 1268 2742 
Q 959 2388 959 1747 
Q 959 1106 1268 751 
Q 1578 397 2138 397 
Q 2388 397 2633 464 
Q 2878 531 3122 666 
L 3122 134 
Q 2881 22 2623 -34 
Q 2366 -91 2075 -91 
Q 1284 -91 818 406 
Q 353 903 353 1747 
Q 353 2603 823 3093 
Q 1294 3584 2113 3584 
Q 2378 3584 2631 3529 
Q 2884 3475 3122 3366 
z
" transform="scale(0.015625)"/>
      </defs>
      <use xlink:href="#DejaVuSans-76"/>
      <use xlink:href="#DejaVuSans-5f" x="59.179688"/>
      <use xlink:href="#DejaVuSans-63" x="109.179688"/>
     </g>
    </g>
   </g>
  </g>
  <g id="axes_2">
   <g id="patch_8">
    <path d="M 31.5375 168.765203 
L 421.875 168.765203 
L 421.875 93.497072 
L 31.5375 93.497072 
z
" style="fill: #ffffff"/>
   </g>
   <g id="matplotlib.axis_3">
    <g id="xtick_8">
     <g id="line2d_16">
      <path d="M 49.280114 168.765203 
L 49.280114 93.497072 
" clip-path="url(#p09740e872a)" style="fill: none; stroke-dasharray: 2.96,1.28; stroke-dashoffset: 0; stroke: #cccccc; stroke-width: 0.8"/>
     </g>
    </g>
    <g id="xtick_9">
     <g id="line2d_17">
      <path d="M 109.424567 168.765203 
L 109.424567 93.497072 
" clip-path="url(#p09740e872a)" style="fill: none; stroke-dasharray: 2.96,1.28; stroke-dashoffset: 0; stroke: #cccccc; stroke-width: 0.8"/>
     </g>
    </g>
    <g id="xtick_10">
     <g id="line2d_18">
      <path d="M 169.56902 168.765203 
L 169.56902 93.497072 
" clip-path="url(#p09740e872a)" style="fill: none; stroke-dasharray: 2.96,1.28; stroke-dashoffset: 0; stroke: #cccccc; stroke-width: 0.8"/>
     </g>
    </g>
    <g id="xtick_11">
     <g id="line2d_19">
      <path d="M 229.713473 168.765203 
L 229.713473 93.497072 
" clip-path="url(#p09740e872a)" style="fill: none; stroke-dasharray: 2.96,1.28; stroke-dashoffset: 0; stroke: #cccccc; stroke-width: 0.8"/>
     </g>
    </g>
    <g id="xtick_12">
     <g id="line2d_20">
      <path d="M 289.857926 168.765203 
L 289.857926 93.497072 
" clip-path="url(#p09740e872a)" style="fill: none; stroke-dasharray: 2.96,1.28; stroke-dashoffset: 0; stroke: #cccccc; stroke-width: 0.8"/>
     </g>
    </g>
    <g id="xtick_13">
     <g id="line2d_21">
      <path d="M 350.002379 168.765203 
L 350.002379 93.497072 
" clip-path="url(#p09740e872a)" style="fill: none; stroke-dasharray: 2.96,1.28; stroke-dashoffset: 0; stroke: #cccccc; stroke-width: 0.8"/>
     </g>
    </g>
    <g id="xtick_14">
     <g id="line2d_22">
      <path d="M 410.146832 168.765203 
L 410.146832 93.497072 
" clip-path="url(#p09740e872a)" style="fill: none; stroke-dasharray: 2.96,1.28; stroke-dashoffset: 0; stroke: #cccccc; stroke-width: 0.8"/>
     </g>
    </g>
   </g>
   <g id="matplotlib.axis_4">
    <g id="ytick_3">
     <g id="line2d_23">
      <path d="M 31.5375 155.415473 
L 421.875 155.415473 
" clip-path="url(#p09740e872a)" style="fill: none; stroke-dasharray: 2.96,1.28; stroke-dashoffset: 0; stroke: #cccccc; stroke-width: 0.8"/>
     </g>
     <g id="text_7">
      <!-- 0.5 -->
      <g style="fill: #262626" transform="translate(8.634375 159.214692) scale(0.1 -0.1)">
       <defs>
        <path id="DejaVuSans-30" d="M 2034 4250 
Q 1547 4250 1301 3770 
Q 1056 3291 1056 2328 
Q 1056 1369 1301 889 
Q 1547 409 2034 409 
Q 2525 409 2770 889 
Q 3016 1369 3016 2328 
Q 3016 3291 2770 3770 
Q 2525 4250 2034 4250 
z
M 2034 4750 
Q 2819 4750 3233 4129 
Q 3647 3509 3647 2328 
Q 3647 1150 3233 529 
Q 2819 -91 2034 -91 
Q 1250 -91 836 529 
Q 422 1150 422 2328 
Q 422 3509 836 4129 
Q 1250 4750 2034 4750 
z
" transform="scale(0.015625)"/>
        <path id="DejaVuSans-2e" d="M 684 794 
L 1344 794 
L 1344 0 
L 684 0 
L 684 794 
z
" transform="scale(0.015625)"/>
        <path id="DejaVuSans-35" d="M 691 4666 
L 3169 4666 
L 3169 4134 
L 1269 4134 
L 1269 2991 
Q 1406 3038 1543 3061 
Q 1681 3084 1819 3084 
Q 2600 3084 3056 2656 
Q 3513 2228 3513 1497 
Q 3513 744 3044 326 
Q 2575 -91 1722 -91 
Q 1428 -91 1123 -41 
Q 819 9 494 109 
L 494 744 
Q 775 591 1075 516 
Q 1375 441 1709 441 
Q 2250 441 2565 725 
Q 2881 1009 2881 1497 
Q 2881 1984 2565 2268 
Q 2250 2553 1709 2553 
Q 1456 2553 1204 2497 
Q 953 2441 691 2322 
L 691 4666 
z
" transform="scale(0.015625)"/>
       </defs>
       <use xlink:href="#DejaVuSans-30"/>
       <use xlink:href="#DejaVuSans-2e" x="63.623047"/>
       <use xlink:href="#DejaVuSans-35" x="95.410156"/>
      </g>
     </g>
    </g>
    <g id="ytick_4">
     <g id="line2d_24">
      <path d="M 31.5375 107.525191 
L 421.875 107.525191 
" clip-path="url(#p09740e872a)" style="fill: none; stroke-dasharray: 2.96,1.28; stroke-dashoffset: 0; stroke: #cccccc; stroke-width: 0.8"/>
     </g>
     <g id="text_8">
      <!-- 1.0 -->
      <g style="fill: #262626" transform="translate(8.634375 111.32441) scale(0.1 -0.1)">
       <use xlink:href="#DejaVuSans-31"/>
       <use xlink:href="#DejaVuSans-2e" x="63.623047"/>
       <use xlink:href="#DejaVuSans-30" x="95.410156"/>
      </g>
     </g>
    </g>
   </g>
   <g id="line2d_25">
    <path d="M 49.280114 114.153959 
L 55.294559 114.15397 
L 61.309004 114.153974 
L 67.32345 114.153976 
L 73.337895 114.153977 
L 79.35234 114.153977 
L 85.366785 114.153978 
L 91.381231 114.153978 
L 97.395676 114.153978 
L 103.410121 114.153978 
L 109.424567 114.153978 
L 115.439012 114.153978 
L 121.453457 114.153978 
L 127.467903 114.153978 
L 133.482348 114.153978 
L 139.496793 114.153978 
L 145.511238 114.153978 
L 151.525684 114.153978 
L 157.540129 114.153978 
L 163.554574 114.153978 
L 169.56902 161.091808 
L 175.583465 163.649375 
L 181.59791 164.721472 
L 187.612356 165.12612 
L 193.626801 165.269386 
L 199.641246 165.318579 
L 205.655691 165.334612 
L 211.670137 165.339373 
L 217.684582 165.341286 
L 223.699027 165.342344 
L 229.713473 165.342972 
L 235.727918 165.343353 
L 241.742363 165.343584 
L 247.756809 165.343724 
L 253.771254 165.343809 
L 259.785699 165.34386 
L 265.800144 165.343889 
L 271.81459 165.343906 
L 277.829035 165.343917 
L 283.84348 165.343924 
L 289.857926 96.918351 
L 295.872371 107.989495 
L 301.886816 109.035185 
L 307.901262 109.127196 
L 313.915707 109.135255 
L 319.930152 109.135959 
L 325.944597 109.13602 
L 331.959043 109.136026 
L 337.973488 109.136026 
L 343.987933 109.136026 
L 350.002379 109.136026 
L 356.016824 109.136026 
L 362.031269 109.136026 
L 368.045715 109.136026 
L 374.06016 109.136026 
L 380.074605 109.136026 
L 386.08905 109.136026 
L 392.103496 109.136026 
L 398.117941 109.136026 
L 404.132386 109.136026 
" clip-path="url(#p09740e872a)" style="fill: none; stroke: #a52a2a; stroke-width: 1.5; stroke-linecap: round"/>
   </g>
   <g id="line2d_26">
    <path d="M 49.280114 114.153959 
L 55.294559 114.15397 
L 61.309004 114.153974 
L 67.32345 114.153976 
L 73.337895 114.153977 
L 79.35234 114.153977 
L 85.366785 114.153978 
L 91.381231 114.153978 
L 97.395676 114.153978 
L 103.410121 114.153978 
L 109.424567 114.153978 
L 115.439012 114.153978 
L 121.453457 114.153978 
L 127.467903 114.153978 
L 133.482348 114.153978 
L 139.496793 114.153978 
L 145.511238 114.153978 
L 151.525684 114.153978 
L 157.540129 114.153978 
L 163.554574 114.153978 
L 169.56902 144.123987 
L 175.583465 145.485692 
L 181.59791 146.207322 
L 187.612356 146.511785 
L 193.626801 146.625639 
L 199.641246 146.666128 
L 205.655691 146.68081 
L 211.670137 146.685309 
L 217.684582 146.686546 
L 223.699027 146.687084 
L 229.713473 146.687382 
L 235.727918 146.68756 
L 241.742363 146.687668 
L 247.756809 146.687733 
L 253.771254 146.687773 
L 259.785699 146.687797 
L 265.800144 146.687811 
L 271.81459 146.687818 
L 277.829035 146.687824 
L 283.84348 146.687827 
L 289.857926 97.060515 
L 295.872371 108.116865 
L 301.886816 109.161157 
L 307.901262 109.253045 
L 313.915707 109.261094 
L 319.930152 109.261797 
L 325.944597 109.261858 
L 331.959043 109.261864 
L 337.973488 109.261864 
L 343.987933 109.261864 
L 350.002379 109.261864 
L 356.016824 109.261864 
L 362.031269 109.261864 
L 368.045715 109.261864 
L 374.06016 109.261864 
L 380.074605 109.261864 
L 386.08905 109.261864 
L 392.103496 109.261864 
L 398.117941 109.261864 
L 404.132386 109.261864 
" clip-path="url(#p09740e872a)" style="fill: none; stroke: #ffa500; stroke-width: 1.5; stroke-linecap: round"/>
   </g>
   <g id="line2d_27">
    <path d="M 49.280114 114.153959 
L 55.294559 114.15397 
L 61.309004 114.153974 
L 67.32345 114.153976 
L 73.337895 114.153977 
L 79.35234 114.153977 
L 85.366785 114.153978 
L 91.381231 114.153978 
L 97.395676 114.153978 
L 103.410121 114.153978 
L 109.424567 114.153978 
L 115.439012 114.153978 
L 121.453457 114.153978 
L 127.467903 114.153978 
L 133.482348 114.153978 
L 139.496793 114.153978 
L 145.511238 114.153978 
L 151.525684 114.153978 
L 157.540129 114.153978 
L 163.554574 114.153978 
L 169.56902 116.173095 
L 175.583465 119.087312 
L 181.59791 120.388299 
L 187.612356 120.895512 
L 193.626801 121.078094 
L 199.641246 121.14147 
L 205.655691 121.162842 
L 211.670137 121.169254 
L 217.684582 121.171557 
L 223.699027 121.17276 
L 229.713473 121.173464 
L 235.727918 121.173889 
L 241.742363 121.174147 
L 247.756809 121.174303 
L 253.771254 121.174398 
L 259.785699 121.174456 
L 265.800144 121.174488 
L 271.81459 121.174507 
L 277.829035 121.174519 
L 283.84348 121.174527 
L 289.857926 96.964938 
L 295.872371 108.031234 
L 301.886816 109.076466 
L 307.901262 109.168437 
L 313.915707 109.176492 
L 319.930152 109.177196 
L 325.944597 109.177257 
L 331.959043 109.177263 
L 337.973488 109.177263 
L 343.987933 109.177263 
L 350.002379 109.177263 
L 356.016824 109.177263 
L 362.031269 109.177263 
L 368.045715 109.177263 
L 374.06016 109.177263 
L 380.074605 109.177263 
L 386.08905 109.177263 
L 392.103496 109.177263 
L 398.117941 109.177263 
L 404.132386 109.177263 
" clip-path="url(#p09740e872a)" style="fill: none; stroke: #ffd700; stroke-width: 1.5; stroke-linecap: round"/>
   </g>
   <g id="patch_9">
    <path d="M 31.5375 168.765203 
L 31.5375 93.497072 
" style="fill: none; stroke: #cccccc; stroke-width: 0.8; stroke-linejoin: miter; stroke-linecap: square"/>
   </g>
   <g id="patch_10">
    <path d="M 421.875 168.765203 
L 421.875 93.497072 
" style="fill: none; stroke: #cccccc; stroke-width: 0.8; stroke-linejoin: miter; stroke-linecap: square"/>
   </g>
   <g id="patch_11">
    <path d="M 31.5375 168.765203 
L 421.875 168.765203 
" style="fill: none; stroke: #cccccc; stroke-width: 0.8; stroke-linejoin: miter; stroke-linecap: square"/>
   </g>
   <g id="patch_12">
    <path d="M 31.5375 93.497072 
L 421.875 93.497072 
" style="fill: none; stroke: #cccccc; stroke-width: 0.8; stroke-linejoin: miter; stroke-linecap: square"/>
   </g>
   <g id="text_9">
    <!-- Transformer Low Side Voltage (pu) -->
    <g style="fill: #262626" transform="translate(123.485625 87.497072) scale(0.12 -0.12)">
     <defs>
      <path id="DejaVuSans-4c" d="M 628 4666 
L 1259 4666 
L 1259 531 
L 3531 531 
L 3531 0 
L 628 0 
L 628 4666 
z
" transform="scale(0.015625)"/>
      <path id="DejaVuSans-77" d="M 269 3500 
L 844 3500 
L 1563 769 
L 2278 3500 
L 2956 3500 
L 3675 769 
L 4391 3500 
L 4966 3500 
L 4050 0 
L 3372 0 
L 2619 2869 
L 1863 0 
L 1184 0 
L 269 3500 
z
" transform="scale(0.015625)"/>
     </defs>
     <use xlink:href="#DejaVuSans-54"/>
     <use xlink:href="#DejaVuSans-72" x="46.333984"/>
     <use xlink:href="#DejaVuSans-61" x="87.447266"/>
     <use xlink:href="#DejaVuSans-6e" x="148.726562"/>
     <use xlink:href="#DejaVuSans-73" x="212.105469"/>
     <use xlink:href="#DejaVuSans-66" x="264.205078"/>
     <use xlink:href="#DejaVuSans-6f" x="299.410156"/>
     <use xlink:href="#DejaVuSans-72" x="360.591797"/>
     <use xlink:href="#DejaVuSans-6d" x="399.955078"/>
     <use xlink:href="#DejaVuSans-65" x="497.367188"/>
     <use xlink:href="#DejaVuSans-72" x="558.890625"/>
     <use xlink:href="#DejaVuSans-20" x="600.003906"/>
     <use xlink:href="#DejaVuSans-4c" x="631.791016"/>
     <use xlink:href="#DejaVuSans-6f" x="685.753906"/>
     <use xlink:href="#DejaVuSans-77" x="746.935547"/>
     <use xlink:href="#DejaVuSans-20" x="828.722656"/>
     <use xlink:href="#DejaVuSans-53" x="860.509766"/>
     <use xlink:href="#DejaVuSans-69" x="923.986328"/>
     <use xlink:href="#DejaVuSans-64" x="951.769531"/>
     <use xlink:href="#DejaVuSans-65" x="1015.246094"/>
     <use xlink:href="#DejaVuSans-20" x="1076.769531"/>
     <use xlink:href="#DejaVuSans-56" x="1108.556641"/>
     <use xlink:href="#DejaVuSans-6f" x="1169.214844"/>
     <use xlink:href="#DejaVuSans-6c" x="1230.396484"/>
     <use xlink:href="#DejaVuSans-74" x="1258.179688"/>
     <use xlink:href="#DejaVuSans-61" x="1297.388672"/>
     <use xlink:href="#DejaVuSans-67" x="1358.667969"/>
     <use xlink:href="#DejaVuSans-65" x="1422.144531"/>
     <use xlink:href="#DejaVuSans-20" x="1483.667969"/>
     <use xlink:href="#DejaVuSans-28" x="1515.455078"/>
     <use xlink:href="#DejaVuSans-70" x="1554.46875"/>
     <use xlink:href="#DejaVuSans-75" x="1617.945312"/>
     <use xlink:href="#DejaVuSans-29" x="1681.324219"/>
    </g>
   </g>
   <g id="legend_2">
    <g id="patch_13">
     <path d="M 38.5375 146.365822 
L 87.804688 146.365822 
Q 89.804688 146.365822 89.804688 144.365822 
L 89.804688 100.497072 
Q 89.804688 98.497072 87.804688 98.497072 
L 38.5375 98.497072 
Q 36.5375 98.497072 36.5375 100.497072 
L 36.5375 144.365822 
Q 36.5375 146.365822 38.5375 146.365822 
z
" style="fill: #ffffff; opacity: 0.8; stroke: #cccccc; stroke-linejoin: miter"/>
    </g>
    <g id="line2d_28">
     <path d="M 40.5375 106.595509 
L 50.5375 106.595509 
L 60.5375 106.595509 
" style="fill: none; stroke: #a52a2a; stroke-width: 1.5; stroke-linecap: round"/>
    </g>
    <g id="text_10">
     <!-- v_a -->
     <g style="fill: #262626" transform="translate(68.5375 110.095509) scale(0.1 -0.1)">
      <use xlink:href="#DejaVuSans-76"/>
      <use xlink:href="#DejaVuSans-5f" x="59.179688"/>
      <use xlink:href="#DejaVuSans-61" x="109.179688"/>
     </g>
    </g>
    <g id="line2d_29">
     <path d="M 40.5375 121.551759 
L 50.5375 121.551759 
L 60.5375 121.551759 
" style="fill: none; stroke: #ffa500; stroke-width: 1.5; stroke-linecap: round"/>
    </g>
    <g id="text_11">
     <!-- v_b -->
     <g style="fill: #262626" transform="translate(68.5375 125.051759) scale(0.1 -0.1)">
      <use xlink:href="#DejaVuSans-76"/>
      <use xlink:href="#DejaVuSans-5f" x="59.179688"/>
      <use xlink:href="#DejaVuSans-62" x="109.179688"/>
     </g>
    </g>
    <g id="line2d_30">
     <path d="M 40.5375 136.508009 
L 50.5375 136.508009 
L 60.5375 136.508009 
" style="fill: none; stroke: #ffd700; stroke-width: 1.5; stroke-linecap: round"/>
    </g>
    <g id="text_12">
     <!-- v_c -->
     <g style="fill: #262626" transform="translate(68.5375 140.008009) scale(0.1 -0.1)">
      <use xlink:href="#DejaVuSans-76"/>
      <use xlink:href="#DejaVuSans-5f" x="59.179688"/>
      <use xlink:href="#DejaVuSans-63" x="109.179688"/>
     </g>
    </g>
   </g>
  </g>
  <g id="axes_3">
   <g id="patch_14">
    <path d="M 31.5375 253.033333 
L 421.875 253.033333 
L 421.875 177.765203 
L 31.5375 177.765203 
z
" style="fill: #ffffff"/>
   </g>
   <g id="matplotlib.axis_5">
    <g id="xtick_15">
     <g id="line2d_31">
      <path d="M 49.280114 253.033333 
L 49.280114 177.765203 
" clip-path="url(#p312878b881)" style="fill: none; stroke-dasharray: 2.96,1.28; stroke-dashoffset: 0; stroke: #cccccc; stroke-width: 0.8"/>
     </g>
     <g id="text_13">
      <!-- 0.0 -->
      <g style="fill: #262626" transform="translate(41.328551 267.631771) scale(0.1 -0.1)">
       <use xlink:href="#DejaVuSans-30"/>
       <use xlink:href="#DejaVuSans-2e" x="63.623047"/>
       <use xlink:href="#DejaVuSans-30" x="95.410156"/>
      </g>
     </g>
    </g>
    <g id="xtick_16">
     <g id="line2d_32">
      <path d="M 109.424567 253.033333 
L 109.424567 177.765203 
" clip-path="url(#p312878b881)" style="fill: none; stroke-dasharray: 2.96,1.28; stroke-dashoffset: 0; stroke: #cccccc; stroke-width: 0.8"/>
     </g>
     <g id="text_14">
      <!-- 0.1 -->
      <g style="fill: #262626" transform="translate(101.473004 267.631771) scale(0.1 -0.1)">
       <use xlink:href="#DejaVuSans-30"/>
       <use xlink:href="#DejaVuSans-2e" x="63.623047"/>
       <use xlink:href="#DejaVuSans-31" x="95.410156"/>
      </g>
     </g>
    </g>
    <g id="xtick_17">
     <g id="line2d_33">
      <path d="M 169.56902 253.033333 
L 169.56902 177.765203 
" clip-path="url(#p312878b881)" style="fill: none; stroke-dasharray: 2.96,1.28; stroke-dashoffset: 0; stroke: #cccccc; stroke-width: 0.8"/>
     </g>
     <g id="text_15">
      <!-- 0.2 -->
      <g style="fill: #262626" transform="translate(161.617457 267.631771) scale(0.1 -0.1)">
       <use xlink:href="#DejaVuSans-30"/>
       <use xlink:href="#DejaVuSans-2e" x="63.623047"/>
       <use xlink:href="#DejaVuSans-32" x="95.410156"/>
      </g>
     </g>
    </g>
    <g id="xtick_18">
     <g id="line2d_34">
      <path d="M 229.713473 253.033333 
L 229.713473 177.765203 
" clip-path="url(#p312878b881)" style="fill: none; stroke-dasharray: 2.96,1.28; stroke-dashoffset: 0; stroke: #cccccc; stroke-width: 0.8"/>
     </g>
     <g id="text_16">
      <!-- 0.3 -->
      <g style="fill: #262626" transform="translate(221.76191 267.631771) scale(0.1 -0.1)">
       <defs>
        <path id="DejaVuSans-33" d="M 2597 2516 
Q 3050 2419 3304 2112 
Q 3559 1806 3559 1356 
Q 3559 666 3084 287 
Q 2609 -91 1734 -91 
Q 1441 -91 1130 -33 
Q 819 25 488 141 
L 488 750 
Q 750 597 1062 519 
Q 1375 441 1716 441 
Q 2309 441 2620 675 
Q 2931 909 2931 1356 
Q 2931 1769 2642 2001 
Q 2353 2234 1838 2234 
L 1294 2234 
L 1294 2753 
L 1863 2753 
Q 2328 2753 2575 2939 
Q 2822 3125 2822 3475 
Q 2822 3834 2567 4026 
Q 2313 4219 1838 4219 
Q 1578 4219 1281 4162 
Q 984 4106 628 3988 
L 628 4550 
Q 988 4650 1302 4700 
Q 1616 4750 1894 4750 
Q 2613 4750 3031 4423 
Q 3450 4097 3450 3541 
Q 3450 3153 3228 2886 
Q 3006 2619 2597 2516 
z
" transform="scale(0.015625)"/>
       </defs>
       <use xlink:href="#DejaVuSans-30"/>
       <use xlink:href="#DejaVuSans-2e" x="63.623047"/>
       <use xlink:href="#DejaVuSans-33" x="95.410156"/>
      </g>
     </g>
    </g>
    <g id="xtick_19">
     <g id="line2d_35">
      <path d="M 289.857926 253.033333 
L 289.857926 177.765203 
" clip-path="url(#p312878b881)" style="fill: none; stroke-dasharray: 2.96,1.28; stroke-dashoffset: 0; stroke: #cccccc; stroke-width: 0.8"/>
     </g>
     <g id="text_17">
      <!-- 0.4 -->
      <g style="fill: #262626" transform="translate(281.906363 267.631771) scale(0.1 -0.1)">
       <defs>
        <path id="DejaVuSans-34" d="M 2419 4116 
L 825 1625 
L 2419 1625 
L 2419 4116 
z
M 2253 4666 
L 3047 4666 
L 3047 1625 
L 3713 1625 
L 3713 1100 
L 3047 1100 
L 3047 0 
L 2419 0 
L 2419 1100 
L 313 1100 
L 313 1709 
L 2253 4666 
z
" transform="scale(0.015625)"/>
       </defs>
       <use xlink:href="#DejaVuSans-30"/>
       <use xlink:href="#DejaVuSans-2e" x="63.623047"/>
       <use xlink:href="#DejaVuSans-34" x="95.410156"/>
      </g>
     </g>
    </g>
    <g id="xtick_20">
     <g id="line2d_36">
      <path d="M 350.002379 253.033333 
L 350.002379 177.765203 
" clip-path="url(#p312878b881)" style="fill: none; stroke-dasharray: 2.96,1.28; stroke-dashoffset: 0; stroke: #cccccc; stroke-width: 0.8"/>
     </g>
     <g id="text_18">
      <!-- 0.5 -->
      <g style="fill: #262626" transform="translate(342.050816 267.631771) scale(0.1 -0.1)">
       <use xlink:href="#DejaVuSans-30"/>
       <use xlink:href="#DejaVuSans-2e" x="63.623047"/>
       <use xlink:href="#DejaVuSans-35" x="95.410156"/>
      </g>
     </g>
    </g>
    <g id="xtick_21">
     <g id="line2d_37">
      <path d="M 410.146832 253.033333 
L 410.146832 177.765203 
" clip-path="url(#p312878b881)" style="fill: none; stroke-dasharray: 2.96,1.28; stroke-dashoffset: 0; stroke: #cccccc; stroke-width: 0.8"/>
     </g>
     <g id="text_19">
      <!-- 0.6 -->
      <g style="fill: #262626" transform="translate(402.195269 267.631771) scale(0.1 -0.1)">
       <defs>
        <path id="DejaVuSans-36" d="M 2113 2584 
Q 1688 2584 1439 2293 
Q 1191 2003 1191 1497 
Q 1191 994 1439 701 
Q 1688 409 2113 409 
Q 2538 409 2786 701 
Q 3034 994 3034 1497 
Q 3034 2003 2786 2293 
Q 2538 2584 2113 2584 
z
M 3366 4563 
L 3366 3988 
Q 3128 4100 2886 4159 
Q 2644 4219 2406 4219 
Q 1781 4219 1451 3797 
Q 1122 3375 1075 2522 
Q 1259 2794 1537 2939 
Q 1816 3084 2150 3084 
Q 2853 3084 3261 2657 
Q 3669 2231 3669 1497 
Q 3669 778 3244 343 
Q 2819 -91 2113 -91 
Q 1303 -91 875 529 
Q 447 1150 447 2328 
Q 447 3434 972 4092 
Q 1497 4750 2381 4750 
Q 2619 4750 2861 4703 
Q 3103 4656 3366 4563 
z
" transform="scale(0.015625)"/>
       </defs>
       <use xlink:href="#DejaVuSans-30"/>
       <use xlink:href="#DejaVuSans-2e" x="63.623047"/>
       <use xlink:href="#DejaVuSans-36" x="95.410156"/>
      </g>
     </g>
    </g>
    <g id="text_20">
     <!-- Time (s) -->
     <g style="fill: #262626" transform="translate(206.377344 281.309896) scale(0.1 -0.1)">
      <use xlink:href="#DejaVuSans-54"/>
      <use xlink:href="#DejaVuSans-69" x="57.958984"/>
      <use xlink:href="#DejaVuSans-6d" x="85.742188"/>
      <use xlink:href="#DejaVuSans-65" x="183.154297"/>
      <use xlink:href="#DejaVuSans-20" x="244.677734"/>
      <use xlink:href="#DejaVuSans-28" x="276.464844"/>
      <use xlink:href="#DejaVuSans-73" x="315.478516"/>
      <use xlink:href="#DejaVuSans-29" x="367.578125"/>
     </g>
    </g>
   </g>
   <g id="matplotlib.axis_6">
    <g id="ytick_5">
     <g id="line2d_38">
      <path d="M 31.5375 244.432581 
L 421.875 244.432581 
" clip-path="url(#p312878b881)" style="fill: none; stroke-dasharray: 2.96,1.28; stroke-dashoffset: 0; stroke: #cccccc; stroke-width: 0.8"/>
     </g>
     <g id="text_21">
      <!-- 0.0 -->
      <g style="fill: #262626" transform="translate(8.634375 248.2318) scale(0.1 -0.1)">
       <use xlink:href="#DejaVuSans-30"/>
       <use xlink:href="#DejaVuSans-2e" x="63.623047"/>
       <use xlink:href="#DejaVuSans-30" x="95.410156"/>
      </g>
     </g>
    </g>
    <g id="ytick_6">
     <g id="line2d_39">
      <path d="M 31.5375 215.590237 
L 421.875 215.590237 
" clip-path="url(#p312878b881)" style="fill: none; stroke-dasharray: 2.96,1.28; stroke-dashoffset: 0; stroke: #cccccc; stroke-width: 0.8"/>
     </g>
     <g id="text_22">
      <!-- 0.5 -->
      <g style="fill: #262626" transform="translate(8.634375 219.389456) scale(0.1 -0.1)">
       <use xlink:href="#DejaVuSans-30"/>
       <use xlink:href="#DejaVuSans-2e" x="63.623047"/>
       <use xlink:href="#DejaVuSans-35" x="95.410156"/>
      </g>
     </g>
    </g>
    <g id="ytick_7">
     <g id="line2d_40">
      <path d="M 31.5375 186.747893 
L 421.875 186.747893 
" clip-path="url(#p312878b881)" style="fill: none; stroke-dasharray: 2.96,1.28; stroke-dashoffset: 0; stroke: #cccccc; stroke-width: 0.8"/>
     </g>
     <g id="text_23">
      <!-- 1.0 -->
      <g style="fill: #262626" transform="translate(8.634375 190.547111) scale(0.1 -0.1)">
       <use xlink:href="#DejaVuSans-31"/>
       <use xlink:href="#DejaVuSans-2e" x="63.623047"/>
       <use xlink:href="#DejaVuSans-30" x="95.410156"/>
      </g>
     </g>
    </g>
   </g>
   <g id="line2d_41">
    <path d="M 49.280114 186.747907 
L 55.294559 186.7479 
L 61.309004 186.747896 
L 67.32345 186.747894 
L 73.337895 186.747893 
L 79.35234 186.747893 
L 85.366785 186.747893 
L 91.381231 186.747893 
L 97.395676 186.747893 
L 103.410121 186.747893 
L 109.424567 186.747893 
L 115.439012 186.747893 
L 121.453457 186.747893 
L 127.467903 186.747893 
L 133.482348 186.747893 
L 139.496793 186.747893 
L 145.511238 186.747893 
L 151.525684 186.747893 
L 157.540129 186.747893 
L 163.554574 186.747893 
L 169.56902 205.81834 
L 175.583465 204.912464 
L 181.59791 204.870872 
L 187.612356 204.919933 
L 193.626801 204.94919 
L 199.641246 204.962271 
L 205.655691 204.969857 
L 211.670137 204.971482 
L 217.684582 204.971403 
L 223.699027 204.971082 
L 229.713473 204.970852 
L 235.727918 204.97071 
L 241.742363 204.970621 
L 247.756809 204.970568 
L 253.771254 204.970536 
L 259.785699 204.970516 
L 265.800144 204.970501 
L 271.81459 204.970496 
L 277.829035 204.970492 
L 283.84348 204.97049 
L 289.857926 181.186481 
L 295.872371 191.011453 
L 301.886816 191.899853 
L 307.901262 191.977666 
L 313.915707 191.984482 
L 319.930152 191.985077 
L 325.944597 191.985129 
L 331.959043 191.985134 
L 337.973488 191.985134 
L 343.987933 191.985134 
L 350.002379 191.985134 
L 356.016824 191.985134 
L 362.031269 191.985134 
L 368.045715 191.985134 
L 374.06016 191.985134 
L 380.074605 191.985134 
L 386.08905 191.985134 
L 392.103496 191.985134 
L 398.117941 191.985134 
L 404.132386 191.985134 
" clip-path="url(#p312878b881)" style="fill: none; stroke: #1f77b4; stroke-width: 1.5; stroke-linecap: round"/>
   </g>
   <g id="line2d_42">
    <path d="M 49.280114 249.612032 
L 55.294559 249.612044 
L 61.309004 249.612049 
L 67.32345 249.612052 
L 73.337895 249.612054 
L 79.35234 249.612054 
L 85.366785 249.612054 
L 91.381231 249.612055 
L 97.395676 249.612055 
L 103.410121 249.612055 
L 109.424567 249.612055 
L 115.439012 249.612055 
L 121.453457 249.612055 
L 127.467903 249.612055 
L 133.482348 249.612055 
L 139.496793 249.612055 
L 145.511238 249.612055 
L 151.525684 249.612055 
L 157.540129 249.612055 
L 163.554574 249.612055 
L 169.56902 245.612123 
L 175.583465 247.482512 
L 181.59791 247.888563 
L 187.612356 247.966571 
L 193.626801 247.980549 
L 199.641246 247.982302 
L 205.655691 247.979702 
L 211.670137 247.978633 
L 217.684582 247.979418 
L 223.699027 247.980165 
L 229.713473 247.980653 
L 235.727918 247.980954 
L 241.742363 247.981137 
L 247.756809 247.981248 
L 253.771254 247.981316 
L 259.785699 247.981357 
L 265.800144 247.98138 
L 271.81459 247.981393 
L 277.829035 247.981402 
L 283.84348 247.981407 
L 289.857926 244.432581 
L 295.872371 244.432581 
L 301.886816 244.432581 
L 307.901262 244.432581 
L 313.915707 244.432581 
L 319.930152 244.432581 
L 325.944597 244.432581 
L 331.959043 244.432581 
L 337.973488 244.432581 
L 343.987933 244.432581 
L 350.002379 244.432581 
L 356.016824 244.432581 
L 362.031269 244.432581 
L 368.045715 244.432581 
L 374.06016 244.432581 
L 380.074605 244.432581 
L 386.08905 244.432581 
L 392.103496 244.432581 
L 398.117941 244.432581 
L 404.132386 244.432581 
" clip-path="url(#p312878b881)" style="fill: none; stroke: #ff7f0e; stroke-width: 1.5; stroke-linecap: round"/>
   </g>
   <g id="patch_15">
    <path d="M 31.5375 253.033333 
L 31.5375 177.765203 
" style="fill: none; stroke: #cccccc; stroke-width: 0.8; stroke-linejoin: miter; stroke-linecap: square"/>
   </g>
   <g id="patch_16">
    <path d="M 421.875 253.033333 
L 421.875 177.765203 
" style="fill: none; stroke: #cccccc; stroke-width: 0.8; stroke-linejoin: miter; stroke-linecap: square"/>
   </g>
   <g id="patch_17">
    <path d="M 31.5375 253.033333 
L 421.875 253.033333 
" style="fill: none; stroke: #cccccc; stroke-width: 0.8; stroke-linejoin: miter; stroke-linecap: square"/>
   </g>
   <g id="patch_18">
    <path d="M 31.5375 177.765203 
L 421.875 177.765203 
" style="fill: none; stroke: #cccccc; stroke-width: 0.8; stroke-linejoin: miter; stroke-linecap: square"/>
   </g>
   <g id="text_24">
    <!-- Active Power (pu) -->
    <g style="fill: #262626" transform="translate(173.901562 171.765203) scale(0.12 -0.12)">
     <defs>
      <path id="DejaVuSans-41" d="M 2188 4044 
L 1331 1722 
L 3047 1722 
L 2188 4044 
z
M 1831 4666 
L 2547 4666 
L 4325 0 
L 3669 0 
L 3244 1197 
L 1141 1197 
L 716 0 
L 50 0 
L 1831 4666 
z
" transform="scale(0.015625)"/>
      <path id="DejaVuSans-50" d="M 1259 4147 
L 1259 2394 
L 2053 2394 
Q 2494 2394 2734 2622 
Q 2975 2850 2975 3272 
Q 2975 3691 2734 3919 
Q 2494 4147 2053 4147 
L 1259 4147 
z
M 628 4666 
L 2053 4666 
Q 2838 4666 3239 4311 
Q 3641 3956 3641 3272 
Q 3641 2581 3239 2228 
Q 2838 1875 2053 1875 
L 1259 1875 
L 1259 0 
L 628 0 
L 628 4666 
z
" transform="scale(0.015625)"/>
     </defs>
     <use xlink:href="#DejaVuSans-41"/>
     <use xlink:href="#DejaVuSans-63" x="66.658203"/>
     <use xlink:href="#DejaVuSans-74" x="121.638672"/>
     <use xlink:href="#DejaVuSans-69" x="160.847656"/>
     <use xlink:href="#DejaVuSans-76" x="188.630859"/>
     <use xlink:href="#DejaVuSans-65" x="247.810547"/>
     <use xlink:href="#DejaVuSans-20" x="309.333984"/>
     <use xlink:href="#DejaVuSans-50" x="341.121094"/>
     <use xlink:href="#DejaVuSans-6f" x="397.798828"/>
     <use xlink:href="#DejaVuSans-77" x="458.980469"/>
     <use xlink:href="#DejaVuSans-65" x="540.767578"/>
     <use xlink:href="#DejaVuSans-72" x="602.291016"/>
     <use xlink:href="#DejaVuSans-20" x="643.404297"/>
     <use xlink:href="#DejaVuSans-28" x="675.191406"/>
     <use xlink:href="#DejaVuSans-70" x="714.205078"/>
     <use xlink:href="#DejaVuSans-75" x="777.681641"/>
     <use xlink:href="#DejaVuSans-29" x="841.060547"/>
    </g>
   </g>
   <g id="legend_3">
    <g id="patch_19">
     <path d="M 38.5375 215.677703 
L 126.539062 215.677703 
Q 128.539062 215.677703 128.539062 213.677703 
L 128.539062 184.765203 
Q 128.539062 182.765203 126.539062 182.765203 
L 38.5375 182.765203 
Q 36.5375 182.765203 36.5375 184.765203 
L 36.5375 213.677703 
Q 36.5375 215.677703 38.5375 215.677703 
z
" style="fill: #ffffff; opacity: 0.8; stroke: #cccccc; stroke-linejoin: miter"/>
    </g>
    <g id="line2d_43">
     <path d="M 40.5375 190.86364 
L 50.5375 190.86364 
L 60.5375 190.86364 
" style="fill: none; stroke: #1f77b4; stroke-width: 1.5; stroke-linecap: round"/>
    </g>
    <g id="text_25">
     <!-- p_pu (DER) -->
     <g style="fill: #262626" transform="translate(68.5375 194.36364) scale(0.1 -0.1)">
      <defs>
       <path id="DejaVuSans-44" d="M 1259 4147 
L 1259 519 
L 2022 519 
Q 2988 519 3436 956 
Q 3884 1394 3884 2338 
Q 3884 3275 3436 3711 
Q 2988 4147 2022 4147 
L 1259 4147 
z
M 628 4666 
L 1925 4666 
Q 3281 4666 3915 4102 
Q 4550 3538 4550 2338 
Q 4550 1131 3912 565 
Q 3275 0 1925 0 
L 628 0 
L 628 4666 
z
" transform="scale(0.015625)"/>
       <path id="DejaVuSans-45" d="M 628 4666 
L 3578 4666 
L 3578 4134 
L 1259 4134 
L 1259 2753 
L 3481 2753 
L 3481 2222 
L 1259 2222 
L 1259 531 
L 3634 531 
L 3634 0 
L 628 0 
L 628 4666 
z
" transform="scale(0.015625)"/>
       <path id="DejaVuSans-52" d="M 2841 2188 
Q 3044 2119 3236 1894 
Q 3428 1669 3622 1275 
L 4263 0 
L 3584 0 
L 2988 1197 
Q 2756 1666 2539 1819 
Q 2322 1972 1947 1972 
L 1259 1972 
L 1259 0 
L 628 0 
L 628 4666 
L 2053 4666 
Q 2853 4666 3247 4331 
Q 3641 3997 3641 3322 
Q 3641 2881 3436 2590 
Q 3231 2300 2841 2188 
z
M 1259 4147 
L 1259 2491 
L 2053 2491 
Q 2509 2491 2742 2702 
Q 2975 2913 2975 3322 
Q 2975 3731 2742 3939 
Q 2509 4147 2053 4147 
L 1259 4147 
z
" transform="scale(0.015625)"/>
      </defs>
      <use xlink:href="#DejaVuSans-70"/>
      <use xlink:href="#DejaVuSans-5f" x="63.476562"/>
      <use xlink:href="#DejaVuSans-70" x="113.476562"/>
      <use xlink:href="#DejaVuSans-75" x="176.953125"/>
      <use xlink:href="#DejaVuSans-20" x="240.332031"/>
      <use xlink:href="#DejaVuSans-28" x="272.119141"/>
      <use xlink:href="#DejaVuSans-44" x="311.132812"/>
      <use xlink:href="#DejaVuSans-45" x="388.134766"/>
      <use xlink:href="#DejaVuSans-52" x="451.318359"/>
      <use xlink:href="#DejaVuSans-29" x="520.800781"/>
     </g>
    </g>
    <g id="line2d_44">
     <path d="M 40.5375 205.81989 
L 50.5375 205.81989 
L 60.5375 205.81989 
" style="fill: none; stroke: #ff7f0e; stroke-width: 1.5; stroke-linecap: round"/>
    </g>
    <g id="text_26">
     <!-- p_pu (Grid) -->
     <g style="fill: #262626" transform="translate(68.5375 209.31989) scale(0.1 -0.1)">
      <defs>
       <path id="DejaVuSans-47" d="M 3809 666 
L 3809 1919 
L 2778 1919 
L 2778 2438 
L 4434 2438 
L 4434 434 
Q 4069 175 3628 42 
Q 3188 -91 2688 -91 
Q 1594 -91 976 548 
Q 359 1188 359 2328 
Q 359 3472 976 4111 
Q 1594 4750 2688 4750 
Q 3144 4750 3555 4637 
Q 3966 4525 4313 4306 
L 4313 3634 
Q 3963 3931 3569 4081 
Q 3175 4231 2741 4231 
Q 1884 4231 1454 3753 
Q 1025 3275 1025 2328 
Q 1025 1384 1454 906 
Q 1884 428 2741 428 
Q 3075 428 3337 486 
Q 3600 544 3809 666 
z
" transform="scale(0.015625)"/>
      </defs>
      <use xlink:href="#DejaVuSans-70"/>
      <use xlink:href="#DejaVuSans-5f" x="63.476562"/>
      <use xlink:href="#DejaVuSans-70" x="113.476562"/>
      <use xlink:href="#DejaVuSans-75" x="176.953125"/>
      <use xlink:href="#DejaVuSans-20" x="240.332031"/>
      <use xlink:href="#DejaVuSans-28" x="272.119141"/>
      <use xlink:href="#DejaVuSans-47" x="311.132812"/>
      <use xlink:href="#DejaVuSans-72" x="388.623047"/>
      <use xlink:href="#DejaVuSans-69" x="429.736328"/>
      <use xlink:href="#DejaVuSans-64" x="457.519531"/>
      <use xlink:href="#DejaVuSans-29" x="520.996094"/>
     </g>
    </g>
   </g>
  </g>
 </g>
 <defs>
  <clipPath id="p114612f057">
   <rect x="31.5375" y="9.228941" width="390.3375" height="75.268131"/>
  </clipPath>
  <clipPath id="p09740e872a">
   <rect x="31.5375" y="93.497072" width="390.3375" height="75.268131"/>
  </clipPath>
  <clipPath id="p312878b881">
   <rect x="31.5375" y="177.765203" width="390.3375" height="75.268131"/>
  </clipPath>
 </defs>
</svg>
